<svg width="37" height="43" viewBox="0 0 37 43" fill="none" xmlns="http://www.w3.org/2000/svg">
<g clip-path="url(#clip0)">
<path fill-rule="evenodd" clip-rule="evenodd" d="M36.6 10.6V31.7L18.3 42.3V31.7L27.5 26.4V15.8L36.6 10.6Z" fill="#D4525E"/>
<path fill-rule="evenodd" clip-rule="evenodd" d="M36.6 10.6L27.5 15.8L18.3 10.6L9.2 15.8L0 10.6L18.3 0L36.6 10.6Z" fill="#FF828D"/>
<path fill-rule="evenodd" clip-rule="evenodd" d="M18.3 31.7V42.3L0 31.7V10.6L9.2 15.8V26.4L18.3 31.7Z" fill="#FF6371"/>
<path fill-rule="evenodd" clip-rule="evenodd" d="M18.3 10.6V21.1L9.2 26.4V15.8L18.3 10.6Z" fill="#BF4A55"/>
<path fill-rule="evenodd" clip-rule="evenodd" d="M27.5 26.4L18.3 31.7L9.2 26.4L18.3 21.1L27.5 26.4Z" fill="#D4525E"/>
<path fill-rule="evenodd" clip-rule="evenodd" d="M27.5 15.8V26.4L18.3 21.1V10.6L27.5 15.8Z" fill="#FF6371"/>
</g>
<defs>
<clipPath id="clip0">
<rect width="36.6" height="42.3" fill="white"/>
</clipPath>
</defs>
</svg>
