<svg width="902" height="635" viewBox="0 0 902 635" fill="none" xmlns="http://www.w3.org/2000/svg">
<g clip-path="url(#clip0)">
<path fill-rule="evenodd" clip-rule="evenodd" d="M552.9 284.1V331.3H477.4V274.6H502.6V293.5H527.8V284.1H552.9Z" stroke="black" stroke-width="2" stroke-miterlimit="10" stroke-linecap="round" stroke-linejoin="round"/>
<path opacity="0.25" fill-rule="evenodd" clip-rule="evenodd" d="M552.9 284.1V331.3H477.4V274.6H502.6V293.5H527.8V284.1H552.9Z" stroke="black" stroke-width="2" stroke-miterlimit="10" stroke-linecap="round" stroke-linejoin="round"/>
<path d="M602.7 280H574.3V302.4H602.7V280Z" stroke="black" stroke-width="2" stroke-miterlimit="10" stroke-linecap="round" stroke-linejoin="round"/>
<path opacity="0.25" d="M602.7 280H574.3V302.4H602.7V280Z" stroke="black" stroke-width="2" stroke-miterlimit="10" stroke-linecap="round" stroke-linejoin="round"/>
<path fill-rule="evenodd" clip-rule="evenodd" d="M515.2 236.5V239.3H492.8V218.3C493.8 220.5 495.5 222.5 497.6 224L515.2 236.5Z" stroke="black" stroke-width="2" stroke-miterlimit="10" stroke-linecap="round" stroke-linejoin="round"/>
<path opacity="0.25" fill-rule="evenodd" clip-rule="evenodd" d="M515.2 236.5V239.3H492.8V218.3C493.8 220.5 495.5 222.5 497.6 224L515.2 236.5Z" stroke="black" stroke-width="2" stroke-miterlimit="10" stroke-linecap="round" stroke-linejoin="round"/>
<path d="M602.7 308.9H574.3V324.1H602.7V308.9Z" stroke="black" stroke-width="2" stroke-miterlimit="10" stroke-linecap="round" stroke-linejoin="round"/>
<path opacity="0.25" d="M602.7 308.9H574.3V324.1H602.7V308.9Z" stroke="black" stroke-width="2" stroke-miterlimit="10" stroke-linecap="round" stroke-linejoin="round"/>
<path d="M602.7 202.8H574.3V218H602.7V202.8Z" stroke="black" stroke-width="2" stroke-miterlimit="10" stroke-linecap="round" stroke-linejoin="round"/>
<path opacity="0.25" d="M602.7 202.8H574.3V218H602.7V202.8Z" stroke="black" stroke-width="2" stroke-miterlimit="10" stroke-linecap="round" stroke-linejoin="round"/>
<path d="M515.2 293.5V275.3L504 264.1V239.3" stroke="black" stroke-width="2" stroke-miterlimit="10" stroke-linecap="round" stroke-linejoin="round"/>
<path d="M538.6 220L548.4 210.2H574.3" stroke="black" stroke-width="2" stroke-miterlimit="10" stroke-linecap="round" stroke-linejoin="round"/>
<path d="M540.3 284.1V272.4L509.6 259.2V239.3" stroke="black" stroke-width="2" stroke-miterlimit="10" stroke-linecap="round" stroke-linejoin="round"/>
<path d="M588.5 279.4V264.1L594.1 256.5V218" stroke="black" stroke-width="2" stroke-miterlimit="10" stroke-linecap="round" stroke-linejoin="round"/>
<path d="M581.4 280V258.8L588.5 247.1V218" stroke="black" stroke-width="2" stroke-miterlimit="10" stroke-linecap="round" stroke-linejoin="round"/>
<path d="M264.2 317V331.3H276.5V329.2H301V331.3H313.2V317H264.2Z" stroke="black" stroke-width="2" stroke-miterlimit="10" stroke-linecap="round" stroke-linejoin="round"/>
<path d="M264.2 180.1H313.2V140.7C313.2 135.3 317.6 130.9 323 130.9H380.6C379.6 124.9 381.1 116.8 387.7 106.3H323C317.6 106.3 313.2 101.9 313.2 96.5V57.1H264.2V180.1Z" stroke="black" stroke-width="2" stroke-miterlimit="10" stroke-linecap="round" stroke-linejoin="round"/>
<path d="M477.4 196.8V331.3V196.8Z" stroke="black" stroke-width="2" stroke-miterlimit="10" stroke-linecap="round" stroke-linejoin="round"/>
<path d="M65.2998 317V331.3H77.4998V329.2H102V331.3H114.2V317H65.2998Z" stroke="black" stroke-width="2" stroke-miterlimit="10" stroke-linecap="round" stroke-linejoin="round"/>
<path d="M431.7 168.8V180.2H444C441 176.3 437.8 172.1 434.8 168.4C434.8 168.5 433.6 168.7 431.7 168.8Z" stroke="black" stroke-width="2" stroke-miterlimit="10" stroke-linecap="round" stroke-linejoin="round"/>
<path d="M58.4 331.3V310.1V180.2V50.2H114.2V29H1V331.3H40.4H58.4Z" stroke="black" stroke-width="2" stroke-miterlimit="10" stroke-linecap="round" stroke-linejoin="round"/>
<path d="M418.6 82.8C423.9 81.4 429.2 80.9 434 80.8C434.4 80.8 434.8 80.8 435.2 80.8C447.1 80.9 456 83.9 456 83.9C456 83.9 471.5 87.7 477.3 105.8V29H418.4L418.6 82.8Z" stroke="black" stroke-width="2" stroke-miterlimit="10" stroke-linecap="round" stroke-linejoin="round"/>
<path d="M232.7 96.6C232.7 102 228.3 106.4 222.9 106.4H209.7H180H127.3H124C118.6 106.4 114.2 102 114.2 96.6V57.1H65.2002V180.2H114.2V140.8C114.2 135.4 118.6 131 124 131H209.8C215.2 131 219.6 135.4 219.6 140.8V144.2H223C228.4 144.2 232.8 148.6 232.8 154V223.2V226.6C232.8 232 228.4 236.4 223 236.4H209.8H180.1H127.4H124C118.6 236.4 114.2 232 114.2 226.6V187H65.2002V310.1H114.2V270.7C114.2 265.3 118.6 260.9 124 260.9H209.8C215.2 260.9 219.6 265.3 219.6 270.7V274.1H223C228.4 274.1 232.8 278.5 232.8 283.9V331.4H257.4V310.2H313.3V270.8C313.3 265.4 317.7 261 323.1 261H326.5V236.4H323C317.6 236.4 313.2 232 313.2 226.6V187H264.2V310.1H257.3V180.2V50.2H313.2V29H232.7V93.2V96.6ZM102 93.7H77.5002V69.3H102V93.7ZM102 223.6H77.5002V199.2H102V223.6ZM276.5 199.2H301V223.6H276.5V199.2Z" stroke="black" stroke-width="2" stroke-miterlimit="10" stroke-linecap="round" stroke-linejoin="round"/>
<path d="M219.6 270.7V274.1V270.7ZM219.6 270.7C219.6 265.3 215.2 260.9 209.8 260.9C215.2 260.9 219.6 265.3 219.6 270.7Z" stroke="black" stroke-width="2" stroke-miterlimit="10" stroke-linecap="round" stroke-linejoin="round"/>
<path d="M127.4 317H114.2V331.3H127.4V317Z" stroke="black" stroke-width="2" stroke-miterlimit="10" stroke-linecap="round" stroke-linejoin="round"/>
<path d="M127.4 310.1V283.8C127.4 278.4 131.8 274 137.2 274H219.6V270.6C219.6 265.2 215.2 260.8 209.8 260.8H124C118.6 260.8 114.2 265.2 114.2 270.6V310H127.4V310.1Z" stroke="black" stroke-width="2" stroke-miterlimit="10" stroke-linecap="round" stroke-linejoin="round"/>
<path d="M223 274C228.4 274 232.8 278.4 232.8 283.8V331.3V283.8C232.7 278.4 228.4 274 223 274Z" stroke="black" stroke-width="2" stroke-miterlimit="10" stroke-linecap="round" stroke-linejoin="round"/>
<path d="M223 274H219.6H137.2C131.8 274 127.4 278.4 127.4 283.8V310.1V317V331.3H232.7V283.8C232.7 278.4 228.4 274 223 274Z" stroke="black" stroke-width="2" stroke-miterlimit="10" stroke-linecap="round" stroke-linejoin="round"/>
<path d="M114.2 317H127.4V310.1H114.2H65.2999H58.3999V331.3H65.2999V317H114.2Z" stroke="black" stroke-width="2" stroke-miterlimit="10" stroke-linecap="round" stroke-linejoin="round"/>
<path d="M102 329.2H77.5V331.3H102V329.2Z" stroke="black" stroke-width="2" stroke-miterlimit="10" stroke-linecap="round" stroke-linejoin="round"/>
<path d="M219.6 140.7V144.1V140.7ZM219.6 140.7C219.6 135.3 215.2 130.9 209.8 130.9C215.2 130.9 219.6 135.3 219.6 140.7Z" stroke="black" stroke-width="2" stroke-miterlimit="10" stroke-linecap="round" stroke-linejoin="round"/>
<path d="M127.4 180.2V153.9C127.4 148.5 131.8 144.1 137.2 144.1H219.6V140.7C219.6 135.3 215.2 130.9 209.8 130.9H124C118.6 130.9 114.2 135.3 114.2 140.7V180.1H127.4V180.2Z" stroke="black" stroke-width="2" stroke-miterlimit="10" stroke-linecap="round" stroke-linejoin="round"/>
<path d="M114.2 187V226.4C114.2 231.8 118.6 236.2 124 236.2H127.4V187H114.2Z" stroke="black" stroke-width="2" stroke-miterlimit="10" stroke-linecap="round" stroke-linejoin="round"/>
<path d="M232.7 153.9V223.1V153.9ZM232.7 153.9C232.7 148.5 228.3 144.1 222.9 144.1C228.4 144.1 232.7 148.5 232.7 153.9Z" stroke="black" stroke-width="2" stroke-miterlimit="10" stroke-linecap="round" stroke-linejoin="round"/>
<path d="M137.2 144.1C131.8 144.1 127.4 148.5 127.4 153.9V180.2V187.1V236.3H180.1V223.1H232.8V153.9C232.8 148.5 228.4 144.1 223 144.1H219.6H137.2V144.1Z" stroke="black" stroke-width="2" stroke-miterlimit="10" stroke-linecap="round" stroke-linejoin="round"/>
<path d="M232.7 226.5C232.7 231.9 228.3 236.3 222.9 236.3C228.4 236.3 232.7 231.9 232.7 226.5ZM232.7 226.5V223.1V226.5Z" stroke="black" stroke-width="2" stroke-miterlimit="10" stroke-linecap="round" stroke-linejoin="round"/>
<path d="M232.7 226.5V223.1H180V236.3H209.7H223C228.4 236.3 232.7 231.9 232.7 226.5Z" stroke="black" stroke-width="2" stroke-miterlimit="10" stroke-linecap="round" stroke-linejoin="round"/>
<path d="M65.2998 187V310.1V187Z" stroke="black" stroke-width="2" stroke-miterlimit="10" stroke-linecap="round" stroke-linejoin="round"/>
<path d="M127.4 180.2V187.1V180.2Z" stroke="black" stroke-width="2" stroke-miterlimit="10" stroke-linecap="round" stroke-linejoin="round"/>
<path d="M65.2999 187H114.2H127.4V180.2H114.2H65.2999H58.3999V310.1H65.2999V187Z" stroke="black" stroke-width="2" stroke-miterlimit="10" stroke-linecap="round" stroke-linejoin="round"/>
<path d="M102 199.2V223.6V199.2Z" stroke="black" stroke-width="2" stroke-miterlimit="10" stroke-linecap="round" stroke-linejoin="round"/>
<path d="M77.5 199.2V223.6H102V199.2H77.5Z" stroke="black" stroke-width="2" stroke-miterlimit="10" stroke-linecap="round" stroke-linejoin="round"/>
<path d="M219.6 10.8V14.2V10.8ZM219.6 10.8C219.6 5.4 215.2 1 209.8 1C215.2 1 219.6 5.4 219.6 10.8Z" stroke="black" stroke-width="2" stroke-miterlimit="10" stroke-linecap="round" stroke-linejoin="round"/>
<path d="M127.4 50.2V23.9C127.4 18.5 131.8 14.1 137.2 14.1H219.6V10.7C219.6 5.30002 215.2 0.900024 209.8 0.900024H124C118.6 0.900024 114.2 5.30002 114.2 10.7V29V50.2H127.4Z" stroke="black" stroke-width="2" stroke-miterlimit="10" stroke-linecap="round" stroke-linejoin="round"/>
<path d="M114.2 57.1V96.5C114.2 101.9 118.6 106.3 124 106.3H127.4V57.1H114.2Z" stroke="black" stroke-width="2" stroke-miterlimit="10" stroke-linecap="round" stroke-linejoin="round"/>
<path d="M232.7 23.9V93.1V29V23.9ZM232.7 23.9C232.7 18.5 228.3 14.1 222.9 14.1C228.4 14.2 232.7 18.5 232.7 23.9Z" stroke="black" stroke-width="2" stroke-miterlimit="10" stroke-linecap="round" stroke-linejoin="round"/>
<path d="M137.2 14.2C131.8 14.2 127.4 18.6 127.4 24V50.3V57.2V106.4H180.1V93.2H232.8V23.9C232.8 18.5 228.4 14.1 223 14.1H219.6H137.2V14.2Z" stroke="black" stroke-width="2" stroke-miterlimit="10" stroke-linecap="round" stroke-linejoin="round"/>
<path d="M223 106.3C228.4 106.3 232.8 101.9 232.8 96.5V93.1V96.5C232.7 101.9 228.4 106.3 223 106.3Z" stroke="black" stroke-width="2" stroke-miterlimit="10" stroke-linecap="round" stroke-linejoin="round"/>
<path d="M209.8 106.3H223C228.4 106.3 232.8 101.9 232.8 96.5V93.1H180.1V106.3H209.8Z" stroke="black" stroke-width="2" stroke-miterlimit="10" stroke-linecap="round" stroke-linejoin="round"/>
<path d="M65.2998 57.1V180.2V57.1Z" stroke="black" stroke-width="2" stroke-miterlimit="10" stroke-linecap="round" stroke-linejoin="round"/>
<path d="M127.4 50.2V57.0999V50.2Z" stroke="black" stroke-width="2" stroke-miterlimit="10" stroke-linecap="round" stroke-linejoin="round"/>
<path d="M65.2999 180.2V57.0999H114.2H127.4V50.2H114.2H58.3999V180.2H65.2999Z" stroke="black" stroke-width="2" stroke-miterlimit="10" stroke-linecap="round" stroke-linejoin="round"/>
<path d="M102 69.3V93.7V69.3Z" stroke="black" stroke-width="2" stroke-miterlimit="10" stroke-linecap="round" stroke-linejoin="round"/>
<path d="M77.5 69.3V93.7H102V69.3H77.5Z" stroke="black" stroke-width="2" stroke-miterlimit="10" stroke-linecap="round" stroke-linejoin="round"/>
<path d="M326.4 310.1V283.8V260.9H323C317.6 260.9 313.2 265.3 313.2 270.7V310.1H326.4Z" stroke="black" stroke-width="2" stroke-miterlimit="10" stroke-linecap="round" stroke-linejoin="round"/>
<path d="M326.4 317H313.2V331.3H326.4V317Z" stroke="black" stroke-width="2" stroke-miterlimit="10" stroke-linecap="round" stroke-linejoin="round"/>
<path d="M326.4 283.8V310.1V317V331.3V283.8Z" stroke="black" stroke-width="2" stroke-miterlimit="10" stroke-linecap="round" stroke-linejoin="round"/>
<path d="M313.2 317H326.4V310.1H313.2H257.3V331.3H264.2V317H313.2Z" stroke="black" stroke-width="2" stroke-miterlimit="10" stroke-linecap="round" stroke-linejoin="round"/>
<path d="M301 329.2H276.5V331.3H301V329.2Z" stroke="black" stroke-width="2" stroke-miterlimit="10" stroke-linecap="round" stroke-linejoin="round"/>
<path d="M380.6 130.9H323C317.6 130.9 313.2 135.3 313.2 140.7V180.1H326.4V153.8C326.4 148.4 330.8 144 336.2 144H389.2C385.6 141.6 381.6 137.4 380.6 130.9Z" stroke="black" stroke-width="2" stroke-miterlimit="10" stroke-linecap="round" stroke-linejoin="round"/>
<path d="M313.2 187V226.4C313.2 231.8 317.6 236.2 323 236.2H326.4V187H313.2Z" stroke="black" stroke-width="2" stroke-miterlimit="10" stroke-linecap="round" stroke-linejoin="round"/>
<path d="M431.7 168.8V180.2V168.8Z" stroke="black" stroke-width="2" stroke-miterlimit="10" stroke-linecap="round" stroke-linejoin="round"/>
<path d="M431.7 180.2V168.8C429.9 169 427.5 169.1 424.8 169.1C413.1 169 395.2 165.9 395 147.1C395 147.1 392.3 146.2 389.2 144H336.2C330.8 144 326.4 148.4 326.4 153.8V180.1V187V236.2V180.2H431.7V180.2Z" stroke="black" stroke-width="2" stroke-miterlimit="10" stroke-linecap="round" stroke-linejoin="round"/>
<path d="M264.2 187V310.1V187Z" stroke="black" stroke-width="2" stroke-miterlimit="10" stroke-linecap="round" stroke-linejoin="round"/>
<path d="M326.4 180.1V187V180.1Z" stroke="black" stroke-width="2" stroke-miterlimit="10" stroke-linecap="round" stroke-linejoin="round"/>
<path d="M326.4 187V180.1H313.2H264.2V180.2H257.3V310.1H264.2V187H313.2H326.4Z" stroke="black" stroke-width="2" stroke-miterlimit="10" stroke-linecap="round" stroke-linejoin="round"/>
<path d="M301 199.2V223.6V199.2Z" stroke="black" stroke-width="2" stroke-miterlimit="10" stroke-linecap="round" stroke-linejoin="round"/>
<path d="M301 223.6V199.2H276.5V223.6H301Z" stroke="black" stroke-width="2" stroke-miterlimit="10" stroke-linecap="round" stroke-linejoin="round"/>
<path d="M418.5 10.8V82.8V29V10.8ZM418.5 10.8C418.5 5.4 414.1 1 408.7 1C414.2 1 418.5 5.4 418.5 10.8Z" stroke="black" stroke-width="2" stroke-miterlimit="10" stroke-linecap="round" stroke-linejoin="round"/>
<path d="M313.2 50.2V57.1V96.5C313.2 101.9 317.6 106.3 323 106.3H387.6C388.2 105.4 388.7 104.5 389.4 103.6C389.5 103.5 389.6 103.3 389.7 103.2C384.2 97.2 378.7 90.8 373.8 84.4V93.1H358V61.6H326.4V45.8H358V14.2H373.8V45.8H405.4V61.6H380.5C390.2 67.4 406.1 76.2 418.6 82.8V10.8C418.6 5.4 414.2 1 408.8 1H323C317.6 1 313.2 5.4 313.2 10.8V29V50.2Z" stroke="black" stroke-width="2" stroke-miterlimit="10" stroke-linecap="round" stroke-linejoin="round"/>
<path d="M264.2 57.1V180.2V180.1V57.1Z" stroke="black" stroke-width="2" stroke-miterlimit="10" stroke-linecap="round" stroke-linejoin="round"/>
<path d="M313.2 50.2V57.0999V50.2Z" stroke="black" stroke-width="2" stroke-miterlimit="10" stroke-linecap="round" stroke-linejoin="round"/>
<path d="M264.2 180.2V57.0999H313.2V50.2H257.3V180.1V180.2H264.2Z" stroke="black" stroke-width="2" stroke-miterlimit="10" stroke-linecap="round" stroke-linejoin="round"/>
<path d="M405.4 45.8V61.6V45.8Z" stroke="black" stroke-width="2" stroke-miterlimit="10" stroke-linecap="round" stroke-linejoin="round"/>
<path d="M373.8 14.2V45.7999V14.2Z" stroke="black" stroke-width="2" stroke-miterlimit="10" stroke-linecap="round" stroke-linejoin="round"/>
<path d="M373.8 84.4V93.1V84.4Z" stroke="black" stroke-width="2" stroke-miterlimit="10" stroke-linecap="round" stroke-linejoin="round"/>
<path d="M365.1 71.5C363.4 68.6 363.6 65 365.5 62.2C367.2 59.8 369.8 58.4 372.5 58.4C374.1 58.4 375.8 58.8 377.3 59.7C378.3 60.3 379.3 60.8999 380.5 61.5999H405.4V45.7999H373.8V14.2H358V45.7999H326.4V61.5999H358V93.2H373.8V84.5C370.4 80 367.4 75.6 365.1 71.5Z" stroke="black" stroke-width="2" stroke-miterlimit="10" stroke-linecap="round" stroke-linejoin="round"/>
<path d="M434.8 168.5C434.8 168.5 430.6 169.2 424.8 169.2C427.5 169.2 429.9 169.1 431.7 168.9C433.6 168.7 434.8 168.5 434.8 168.5Z" stroke="black" stroke-width="2" stroke-miterlimit="10" stroke-linecap="round" stroke-linejoin="round"/>
<path d="M477.4 105.9C471.6 87.8 456.1 84 456.1 84C456.1 84 447.2 81 435.3 80.9C447.2 81 456.1 84 456.1 84C456.1 84 471.6 87.8 477.4 105.9Z" stroke="black" stroke-width="2" stroke-miterlimit="10" stroke-linecap="round" stroke-linejoin="round"/>
<path d="M415.9 129.4C415.9 129.4 414.1 127.8 411.2 125C414.2 135.6 404.7 138.1 404.7 138.1" stroke="black" stroke-width="2" stroke-miterlimit="10" stroke-linecap="round" stroke-linejoin="round"/>
<path d="M400.7 114.8C397.3 111.3 393.5 107.4 389.6 103.3C389.5 103.4 389.4 103.6 389.3 103.7C388.7 104.6 388.1 105.5 387.5 106.4C380.9 116.9 379.4 125 380.4 131C381.5 137.5 385.5 141.7 389 144.2C392.1 146.4 394.8 147.3 394.8 147.3C395 166.1 412.9 169.2 424.6 169.3C430.3 169.3 434.6 168.6 434.6 168.6C434.6 168.6 447.6 140.1 477.2 138.3V106C471.6 87.8 456.1 84 456.1 84C456.1 84 447.2 81 435.3 80.9C434.9 80.9 434.5 80.9 434.1 80.9C429.3 80.9 424 81.5 418.7 82.9C427 87.3 433.9 90.8 436.3 91.7" stroke="black" stroke-width="2" stroke-miterlimit="10" stroke-linecap="round" stroke-linejoin="round"/>
<path d="M434.8 168.5C437.8 172.2 441.1 176.3 444 180.3H477.4V196.9V180.3V138.2C447.8 139.9 434.8 168.5 434.8 168.5Z" stroke="black" stroke-width="2" stroke-miterlimit="10" stroke-linecap="round" stroke-linejoin="round"/>
<path d="M404.7 138.1C404.7 138.1 414.1 135.6 411.2 125C414.2 135.6 404.7 138.1 404.7 138.1Z" stroke="black" stroke-width="2" stroke-miterlimit="10" stroke-linecap="round" stroke-linejoin="round"/>
<path d="M404.7 138.1C404.7 138.1 414.1 135.6 411.2 125C408.5 122.5 404.8 118.9 400.7 114.7" stroke="black" stroke-width="2" stroke-miterlimit="10" stroke-linecap="round" stroke-linejoin="round"/>
<path d="M436.2 91.7C433.8 90.8 427 87.3 418.6 82.9C418.6 82.9 418.6 82.9 418.5 82.9C406 76.2 390.1 67.4 380.4 61.7C379.3 61 378.2 60.4 377.2 59.8C375.7 58.9 374 58.5 372.4 58.5C374 58.5 375.7 58.9 377.2 59.8C391.7 68.5 429.8 89.2 436.2 91.7Z" stroke="black" stroke-width="2" stroke-miterlimit="10" stroke-linecap="round" stroke-linejoin="round"/>
<path d="M436.2 91.7C429.8 89.3 391.7 68.5 377.3 59.7C375.8 58.8 374.1 58.4 372.5 58.4C369.8 58.5 367.1 59.8 365.5 62.2C363.6 65 363.5 68.6 365.1 71.5C367.5 75.7 370.5 80 373.8 84.5C378.6 90.9 384.2 97.3 389.7 103.3C393.5 107.5 397.3 111.4 400.8 114.8C404.9 119 408.6 122.5 411.3 125.1C414.2 127.9 416 129.5 416 129.5" stroke="black" stroke-width="2" stroke-miterlimit="10" stroke-linecap="round" stroke-linejoin="round"/>
<path d="M517.8 592.9V633.6H544.5V566.3L517.8 592.9Z" stroke="black" stroke-width="2" stroke-miterlimit="10" stroke-linecap="round" stroke-linejoin="round"/>
<path d="M688.4 549.9C688.7 551.8 689 553.6 688.8 555.4C688.6 556.9 688.3 559.1 687.9 561.6H742.3C737 556.7 733.7 549.7 733.7 541.9C733.7 539 734.2 536.2 735 533.6H722.9H682.8C685.5 538.6 687.6 544.1 688.4 549.9Z" stroke="black" stroke-width="2" stroke-miterlimit="10" stroke-linecap="round" stroke-linejoin="round"/>
<path d="M662.5 548C661.5 552.5 660.3 557.1 659.1 561.6H671.7C671.8 559.3 671.9 557.8 671.9 557.8C671.9 557.8 667 553 662.5 548Z" stroke="black" stroke-width="2" stroke-miterlimit="10" stroke-linecap="round" stroke-linejoin="round"/>
<path d="M477.4 633.4V633.6H511V599.8L477.4 633.4Z" stroke="black" stroke-width="2" stroke-miterlimit="10" stroke-linecap="round" stroke-linejoin="round"/>
<path d="M836.1 477.6H798.3H722.8H674.2C674.2 481.6 673.3 485.4 671.8 488.8H722.8H760.6V483.2H798.4" stroke="black" stroke-width="2" stroke-miterlimit="10" stroke-linecap="round" stroke-linejoin="round"/>
<path d="M588.5 593.9C588.5 593.9 587.7 575.6 593.1 552.6C590.3 549.7 588.5 544.7 588.5 537.5C588.5 508.7 618.4 503.6 618.4 503.6C619.6 503.1 620.8 502.6 622.1 502.4C625.7 501.6 630.2 501.3 635 501.6C629.4 498.7 625 494 622.5 488.3L551.3 559.5V633.7H588.5C585.2 616 588.5 593.9 588.5 593.9Z" stroke="black" stroke-width="2" stroke-miterlimit="10" stroke-linecap="round" stroke-linejoin="round"/>
<path d="M704.3 584H694.5L687 566.3C684.6 580.1 680.1 599.5 674.2 599.5C670.4 599.5 671.1 571.9 671.5 561.6H658.9C653.7 580.5 647 597.2 645 597.8C646.1 599.5 646.9 601.2 647.7 603.1H704V586.5C704 585.7 704.1 584.8 704.3 584Z" stroke="black" stroke-width="2" stroke-miterlimit="10" stroke-linecap="round" stroke-linejoin="round"/>
<path d="M816.9 584C817.1 584.8 817.2 585.7 817.2 586.5V598.6L838.6 577.8C840.8 575.7 844.5 577 844.8 580C845.1 582.5 843.9 592.5 841.1 603.1H883.1L900.6 561.6H836.1L826.7 584H816.9V584Z" stroke="black" stroke-width="2" stroke-miterlimit="10" stroke-linecap="round" stroke-linejoin="round"/>
<path d="M798.4 483.2H836.1V477.6" stroke="black" stroke-width="2" stroke-miterlimit="10" stroke-linecap="round" stroke-linejoin="round"/>
<path d="M798.4 483.2H760.6V488.8" stroke="black" stroke-width="2" stroke-miterlimit="10" stroke-linecap="round" stroke-linejoin="round"/>
<path d="M786.2 533.6C787.1 536.2 787.5 539 787.5 541.9H836.1V533.6H798.3H786.2Z" stroke="black" stroke-width="2" stroke-miterlimit="10" stroke-linecap="round" stroke-linejoin="round"/>
<path d="M685.1 414.1V423.4H722.8" stroke="black" stroke-width="2" stroke-miterlimit="10" stroke-linecap="round" stroke-linejoin="round"/>
<path d="M760.6 432.8V423.4H722.8" stroke="black" stroke-width="2" stroke-miterlimit="10" stroke-linecap="round" stroke-linejoin="round"/>
<path d="M798.4 565.6C804.6 565.6 809.6 570.6 809.6 576.8H807.5C812 576.8 815.8 579.9 816.9 584H826.7L836.1 561.6H779C777.4 563.1 775.5 564.5 773.5 565.6H798.4V565.6Z" stroke="black" stroke-width="2" stroke-miterlimit="10" stroke-linecap="round" stroke-linejoin="round"/>
<path d="M687.1 566.3L694.6 584H704.4C705.5 579.8 709.3 576.8 713.8 576.8H711.7C711.7 570.6 716.7 565.6 722.9 565.6H747.7C745.7 564.5 743.9 563.2 742.2 561.6H687.8C687.6 563.1 687.4 564.7 687.1 566.3Z" stroke="black" stroke-width="2" stroke-miterlimit="10" stroke-linecap="round" stroke-linejoin="round"/>
<path d="M674.3 477.6H722.9V432.8H647.4V450.7C662.2 450.6 674.3 462.7 674.3 477.6Z" stroke="black" stroke-width="2" stroke-miterlimit="10" stroke-linecap="round" stroke-linejoin="round"/>
<path d="M836.1 477.6H873.9V432.8H798.4V477.6H836.1Z" stroke="black" stroke-width="2" stroke-miterlimit="10" stroke-linecap="round" stroke-linejoin="round"/>
<path d="M798.4 477.6V432.8H760.6H722.8V477.6H798.4Z" stroke="black" stroke-width="2" stroke-miterlimit="10" stroke-linecap="round" stroke-linejoin="round"/>
<path d="M660.5 507.6C660.8 507.7 661.2 508 661.5 508.2L674.9 502.8C677.7 501.7 680.1 505.2 677.9 507.4C675.4 509.9 672.5 512.7 669.3 515.8C673.7 520.3 678.8 526.5 682.7 533.6H722.8V488.8H671.8C668.1 497 660.3 503 651.1 504.3C654.4 505.2 657.5 506.3 660.5 507.6Z" stroke="black" stroke-width="2" stroke-miterlimit="10" stroke-linecap="round" stroke-linejoin="round"/>
<path d="M836.1 533.6H873.9V488.8H798.4V533.6H836.1Z" stroke="black" stroke-width="2" stroke-miterlimit="10" stroke-linecap="round" stroke-linejoin="round"/>
<path d="M722.8 533.6H735C738.5 522.8 748.7 515 760.6 515C772.6 515 782.7 522.8 786.2 533.6H798.3V488.8H760.5H722.7V533.6H722.8Z" stroke="black" stroke-width="2" stroke-miterlimit="10" stroke-linecap="round" stroke-linejoin="round"/>
<path d="M873.9 369.3H647.3V414.1H685.1H873.9V369.3Z" stroke="black" stroke-width="2" stroke-miterlimit="10" stroke-linecap="round" stroke-linejoin="round"/>
<path d="M711.6 576.8H713.7H807.4H809.5C809.5 570.6 804.5 565.6 798.3 565.6H773.5C769.7 567.7 765.2 568.9 760.6 568.9C756 568.9 751.5 567.7 747.7 565.6H722.9C716.7 565.6 711.6 570.6 711.6 576.8Z" stroke="black" stroke-width="2" stroke-miterlimit="10" stroke-linecap="round" stroke-linejoin="round"/>
<path d="M817.2 598.7V586.6C817.2 585.7 817.1 584.9 816.9 584.1C815.8 579.9 812 576.9 807.5 576.9H713.8C709.3 576.9 705.5 580 704.4 584.1C704.2 584.9 704.1 585.8 704.1 586.6V603.2V633.4H817.4V614.9V598.7H817.2Z" stroke="black" stroke-width="2" stroke-miterlimit="10" stroke-linecap="round" stroke-linejoin="round"/>
<path d="M760.6 515C748.6 515 738.5 522.8 735 533.6C734.1 536.2 733.7 539 733.7 541.9C733.7 549.7 737 556.7 742.3 561.6C743.9 563.1 745.8 564.5 747.8 565.6C751.6 567.7 756.1 568.9 760.7 568.9C765.3 568.9 769.8 567.7 773.6 565.6C775.6 564.5 777.4 563.2 779.1 561.6C784.4 556.7 787.7 549.7 787.7 541.9C787.7 539 787.2 536.2 786.4 533.6C782.7 522.8 772.6 515 760.6 515Z" stroke="black" stroke-width="2" stroke-miterlimit="10" stroke-linecap="round" stroke-linejoin="round"/>
<path d="M844.8 580.1C844.5 577.1 840.8 575.7 838.6 577.9L817.2 598.7V614.9V633.4C829.2 635.6 836.9 618.7 841 603.2C843.9 592.5 845.1 582.6 844.8 580.1Z" stroke="black" stroke-width="2" stroke-miterlimit="10" stroke-linecap="round" stroke-linejoin="round"/>
<path d="M662.6 509.2C662.8 509.4 662.9 509.6 663.1 509.8C664.7 511.2 667 513.3 669.5 515.9C672.7 512.9 675.6 510 678.1 507.5C680.2 505.4 677.9 501.8 675.1 502.9L661.7 508.3C661.9 508.5 662.2 508.8 662.6 509.2Z" stroke="black" stroke-width="2" stroke-miterlimit="10" stroke-linecap="round" stroke-linejoin="round"/>
<path d="M610 510.9C612 507.7 614.9 505.2 618.3 503.6C618.3 503.6 588.4 508.7 588.4 537.5C588.4 544.7 590.2 549.6 593 552.6C596.2 539.3 601.4 524.6 610 510.9Z" stroke="black" stroke-width="2" stroke-miterlimit="10" stroke-linecap="round" stroke-linejoin="round"/>
<path d="M647.9 603.2C647.1 601.3 646.2 599.5 645.2 597.9C598.1 613.1 588.6 593.9 588.6 593.9C588.6 593.9 585.3 616.1 588.6 633.6H652.2C652.2 633.6 653.3 616.4 647.9 603.2Z" stroke="black" stroke-width="2" stroke-miterlimit="10" stroke-linecap="round" stroke-linejoin="round"/>
<path d="M622.6 488.2C625.1 494 629.5 498.7 635.1 501.5C640.3 501.8 645.9 502.7 651.3 504.2C660.5 502.9 668.2 496.9 672 488.7C673.6 485.3 674.4 481.5 674.4 477.5C674.4 462.6 662.3 450.5 647.4 450.5C640 450.5 633.4 453.4 628.5 458.2V482.2L622.6 488.2Z" stroke="black" stroke-width="2" stroke-miterlimit="10" stroke-linecap="round" stroke-linejoin="round"/>
<path d="M660.5 507.6C657.5 506.3 654.4 505.2 651.2 504.3C645.8 502.8 640.2 501.9 635 501.6C630.2 501.3 625.7 501.6 622.1 502.4C620.8 502.7 619.6 503.1 618.4 503.6C615 505.1 612.1 507.7 610.1 510.9C601.5 524.6 596.3 539.4 593.2 552.6C587.8 575.6 588.6 593.9 588.6 593.9C588.6 593.9 598.2 613.1 645.2 597.9C647.2 597.3 653.8 580.6 659.1 561.7C660.3 557.2 661.5 552.6 662.5 548.1C659.4 544.6 656.4 541 655.3 538.7" stroke="black" stroke-width="2" stroke-miterlimit="10" stroke-linecap="round" stroke-linejoin="round"/>
<path d="M663 509.7C661.6 508.5 660.7 507.8 660.5 507.6C660.5 507.6 661.5 508.4 663 509.7Z" stroke="black" stroke-width="2" stroke-miterlimit="10" stroke-linecap="round" stroke-linejoin="round"/>
<path d="M655.3 538.6C656.4 540.9 659.4 544.5 662.5 548C667 553.1 671.8 557.8 671.8 557.8C671.8 557.8 671.7 559.2 671.6 561.6C671.2 571.9 670.5 599.5 674.3 599.5C680.2 599.5 684.7 580.1 687.1 566.3C687.4 564.6 687.7 563.1 687.9 561.6C688.3 559.1 688.6 556.9 688.8 555.4C689.1 553.5 688.7 551.7 688.4 549.9C687.6 544.1 685.5 538.6 682.8 533.6C678.9 526.4 673.8 520.3 669.4 515.8C666.9 513.2 664.6 511.1 663 509.7C661.4 508.3 660.5 507.6 660.5 507.6" stroke="black" stroke-width="2" stroke-miterlimit="10" stroke-linecap="round" stroke-linejoin="round"/>
<path d="M663 509.7C662.9 509.5 662.7 509.4 662.6 509.2C662.3 508.9 661.9 508.6 661.6 508.3C661.3 508.1 660.9 507.9 660.6 507.7C660.7 507.8 661.6 508.5 663 509.7Z" stroke="black" stroke-width="2" stroke-miterlimit="10" stroke-linecap="round" stroke-linejoin="round"/>
<path opacity="0.25" d="M663 509.7C662.9 509.5 662.7 509.4 662.6 509.2C662.3 508.9 661.9 508.6 661.6 508.3C661.3 508.1 660.9 507.9 660.6 507.7C660.7 507.8 661.6 508.5 663 509.7Z" stroke="black" stroke-width="2" stroke-miterlimit="10" stroke-linecap="round" stroke-linejoin="round"/>
<path d="M544.5 566.3V633.6H551.4V559.4L544.5 566.3Z" stroke="black" stroke-width="2" stroke-miterlimit="10" stroke-linecap="round" stroke-linejoin="round"/>
<path d="M511 599.8V633.6H517.8V592.9L511 599.8Z" stroke="black" stroke-width="2" stroke-miterlimit="10" stroke-linecap="round" stroke-linejoin="round"/>
<path d="M393.5 567.6L414.5 546.5L420.1 540.9V482.3H393.5V567.6Z" stroke="black" stroke-width="2" stroke-miterlimit="10" stroke-linecap="round" stroke-linejoin="round"/>
<path d="M175.3 588.3V574L175.2 573.7V588.7C175.3 588.5 175.3 588.4 175.3 588.3Z" stroke="black" stroke-width="2" stroke-miterlimit="10" stroke-linecap="round" stroke-linejoin="round"/>
<path d="M359.9 536.6H366.7V586.9H359.9V587.4H373.6L386.6 574.5V482.3H359.9V536.6Z" stroke="black" stroke-width="2" stroke-miterlimit="10" stroke-linecap="round" stroke-linejoin="round"/>
<path d="M453.7 482.3H427V534L438.9 522.2L463.2 497.8L477.4 483.6V482.3H460.6H453.7Z" stroke="black" stroke-width="2" stroke-miterlimit="10" stroke-linecap="round" stroke-linejoin="round"/>
<path d="M286.4 482.3H313.1V447.9H286.4V482.3ZM299.7 458.4C303.4 458.4 306.4 461.4 306.4 465.1C306.4 468.8 303.4 471.8 299.7 471.8C296 471.8 293 468.8 293 465.1C293.1 461.4 296 458.4 299.7 458.4Z" stroke="black" stroke-width="2" stroke-miterlimit="10" stroke-linecap="round" stroke-linejoin="round"/>
<path d="M299.7 471.8C303.4 471.8 306.4 468.8 306.4 465.1C306.4 461.4 303.4 458.4 299.7 458.4C296 458.4 293 461.4 293 465.1C293 468.8 296 471.8 299.7 471.8Z" stroke="black" stroke-width="2" stroke-miterlimit="10" stroke-linecap="round" stroke-linejoin="round"/>
<path d="M359.9 482.3H353V536.6H359.9V482.3Z" stroke="black" stroke-width="2" stroke-miterlimit="10" stroke-linecap="round" stroke-linejoin="round"/>
<path d="M354.9 614.1H353V633.4H359.9V614.1H355.3H354.9Z" stroke="black" stroke-width="2" stroke-miterlimit="10" stroke-linecap="round" stroke-linejoin="round"/>
<path d="M355.3 587.4H359.9V586.9H353V587.4H354.9H355.3Z" stroke="black" stroke-width="2" stroke-miterlimit="10" stroke-linecap="round" stroke-linejoin="round"/>
<path d="M319.5 614.1V633.4H326.4V614.1H320.8H319.5Z" stroke="black" stroke-width="2" stroke-miterlimit="10" stroke-linecap="round" stroke-linejoin="round"/>
<path d="M320.8 607.4C317.1 607.4 314.1 604.4 314.1 600.7C314.1 597 317.1 594 320.8 594V587.3H286.4V614H319.5H320.8V607.4V607.4ZM303.6 607.4C299.9 607.4 296.9 604.4 296.9 600.7C296.9 597 299.9 594 303.6 594C307.3 594 310.3 597 310.3 600.7C310.3 604.4 307.3 607.4 303.6 607.4Z" stroke="black" stroke-width="2" stroke-miterlimit="10" stroke-linecap="round" stroke-linejoin="round"/>
<path d="M354.9 607.4C351.4 607.2 348.6 604.3 348.6 600.8C348.6 597.3 351.4 594.3 354.9 594.2V587.5H353H320.8V594.2C324.5 594.2 327.5 597.2 327.5 600.9C327.5 604.6 324.5 607.6 320.8 607.6V614.3H326.4H353H354.9V607.4ZM338.1 607.4C334.4 607.4 331.4 604.4 331.4 600.7C331.4 597 334.4 594 338.1 594C341.8 594 344.8 597 344.8 600.7C344.8 604.4 341.7 607.4 338.1 607.4Z" stroke="black" stroke-width="2" stroke-miterlimit="10" stroke-linecap="round" stroke-linejoin="round"/>
<path d="M384.7 614.1H386.6V612.2L384.7 614.1Z" stroke="black" stroke-width="2" stroke-miterlimit="10" stroke-linecap="round" stroke-linejoin="round"/>
<path d="M372.5 607.4C368.8 607.4 365.8 604.4 365.8 600.7C365.8 599.2 366.3 597.7 367.2 596.6L365.8 595.2L373.6 587.4H359.9H355.2H354.8V594.1C354.9 594.1 355 594.1 355.2 594.1C358.9 594.1 361.9 597.1 361.9 600.8C361.9 604.5 358.9 607.5 355.2 607.5C355.1 607.5 355 607.5 354.8 607.5V614.2H355.2H359.9H384.7L376.6 606.1C375.5 606.9 374 607.4 372.5 607.4Z" stroke="black" stroke-width="2" stroke-miterlimit="10" stroke-linecap="round" stroke-linejoin="round"/>
<path d="M403.9 585.4C401.3 588 397.1 588 394.5 585.4C394.1 585 393.7 584.5 393.5 584V591C393.8 592.2 393.8 593.4 393.5 594.6V605.3L409.1 589.7L404.4 585C404.2 585.1 404.1 585.3 403.9 585.4Z" stroke="black" stroke-width="2" stroke-miterlimit="10" stroke-linecap="round" stroke-linejoin="round"/>
<path d="M394.5 576C394.6 575.9 394.8 575.8 394.9 575.6L393.5 574.2V577.4C393.8 576.9 394.1 576.4 394.5 576Z" stroke="black" stroke-width="2" stroke-miterlimit="10" stroke-linecap="round" stroke-linejoin="round"/>
<path d="M386.6 599.5C385 599.4 383.5 598.8 382.3 597.6C379.7 595 379.7 590.8 382.3 588.2C383.5 587 385 586.4 386.6 586.3V574.5L373.6 587.5L365.8 595.3L367.2 596.7C368.4 595.1 370.3 594.1 372.4 594.1C376.1 594.1 379.1 597.1 379.1 600.8C379.1 602.9 378.1 604.8 376.5 606L384.6 614.1L386.5 612.2V599.5H386.6Z" stroke="black" stroke-width="2" stroke-miterlimit="10" stroke-linecap="round" stroke-linejoin="round"/>
<path d="M303.6 607.5C307.3 607.5 310.3 604.5 310.3 600.8C310.3 597.1 307.3 594.1 303.6 594.1C299.9 594.1 296.9 597.1 296.9 600.8C296.9 604.5 299.9 607.5 303.6 607.5Z" stroke="black" stroke-width="2" stroke-miterlimit="10" stroke-linecap="round" stroke-linejoin="round"/>
<path d="M320.8 607.5C324.5 607.5 327.5 604.5 327.5 600.8C327.5 597.1 324.5 594.1 320.8 594.1C317.1 594.1 314.1 597.1 314.1 600.8C314.1 604.5 317.1 607.5 320.8 607.5Z" stroke="black" stroke-width="2" stroke-miterlimit="10" stroke-linecap="round" stroke-linejoin="round"/>
<path d="M338.1 594.1C334.4 594.1 331.4 597.1 331.4 600.8C331.4 604.5 334.4 607.5 338.1 607.5C341.8 607.5 344.8 604.5 344.8 600.8C344.8 597.1 341.7 594.1 338.1 594.1Z" stroke="black" stroke-width="2" stroke-miterlimit="10" stroke-linecap="round" stroke-linejoin="round"/>
<path d="M348.6 600.8C348.6 604.4 351.4 607.3 354.9 607.4C355 607.4 355.1 607.4 355.3 607.4C359 607.4 362 604.4 362 600.7C362 597 359 594 355.3 594C355.2 594 355.1 594 354.9 594C351.4 594.3 348.6 597.2 348.6 600.8Z" stroke="black" stroke-width="2" stroke-miterlimit="10" stroke-linecap="round" stroke-linejoin="round"/>
<path d="M372.5 607.4C374 607.4 375.5 606.9 376.6 606C378.2 604.8 379.2 602.9 379.2 600.8C379.2 597.1 376.2 594.1 372.5 594.1C370.4 594.1 368.5 595.1 367.3 596.7C366.4 597.8 365.9 599.3 365.9 600.8C365.8 604.4 368.8 607.4 372.5 607.4Z" stroke="black" stroke-width="2" stroke-miterlimit="10" stroke-linecap="round" stroke-linejoin="round"/>
<path d="M418.9 561C416.3 558.4 416.3 554.2 418.9 551.6C419 551.5 419.2 551.4 419.3 551.2L414.6 546.5L393.5 567.6V574.2L394.9 575.6C397.5 573.4 401.5 573.5 403.9 576C406.4 578.5 406.5 582.4 404.3 585L409 589.7L420.1 578.6V562C419.7 561.8 419.3 561.4 418.9 561ZM416.1 573.2C413.5 575.8 409.3 575.8 406.7 573.2C404.1 570.6 404.1 566.4 406.7 563.8C409.3 561.2 413.5 561.2 416.1 563.8C418.7 566.4 418.7 570.6 416.1 573.2Z" stroke="black" stroke-width="2" stroke-miterlimit="10" stroke-linecap="round" stroke-linejoin="round"/>
<path d="M428.3 561C427.9 561.4 427.5 561.7 427 562V571.7L433.4 565.3L428.7 560.6C428.5 560.8 428.4 560.9 428.3 561Z" stroke="black" stroke-width="2" stroke-miterlimit="10" stroke-linecap="round" stroke-linejoin="round"/>
<path d="M419.3 551.3C419.6 551.1 419.9 550.9 420.2 550.7V541L414.6 546.6L419.3 551.3Z" stroke="black" stroke-width="2" stroke-miterlimit="10" stroke-linecap="round" stroke-linejoin="round"/>
<path d="M453 536.3C452.9 536.4 452.8 536.6 452.6 536.7C450 539.3 445.8 539.3 443.2 536.7C440.6 534.1 440.6 529.9 443.2 527.3C443.3 527.2 443.5 527.1 443.6 526.9L438.9 522.2L427 534V550.6C427.5 550.9 427.9 551.2 428.3 551.6C430.8 554.1 430.9 558 428.7 560.6L433.4 565.3L457.8 540.9L453 536.3ZM440.5 548.9C437.9 551.5 433.7 551.5 431.1 548.9C428.5 546.3 428.5 542.1 431.1 539.5C433.7 536.9 437.9 536.9 440.5 539.5C443.1 542 443.1 546.3 440.5 548.9Z" stroke="black" stroke-width="2" stroke-miterlimit="10" stroke-linecap="round" stroke-linejoin="round"/>
<path d="M477.4 511.9C477.3 512 477.2 512.2 477 512.3C474.4 514.9 470.2 514.9 467.6 512.3C465 509.7 465 505.5 467.6 502.9C467.7 502.8 467.9 502.7 468 502.5L463.3 497.8L438.9 522.2L443.6 526.9C446.2 524.7 450.2 524.8 452.6 527.3C455.1 529.8 455.2 533.7 453 536.3L457.7 541L477.4 521.3V511.9ZM464.8 524.5C462.2 527.1 458 527.1 455.4 524.5C452.8 521.9 452.8 517.7 455.4 515.1C458 512.5 462.2 512.5 464.8 515.1C467.4 517.7 467.4 521.9 464.8 524.5Z" stroke="black" stroke-width="2" stroke-miterlimit="10" stroke-linecap="round" stroke-linejoin="round"/>
<path d="M477.4 512C477.4 511.9 477.4 511.9 477.4 512V512Z" stroke="black" stroke-width="2" stroke-miterlimit="10" stroke-linecap="round" stroke-linejoin="round"/>
<path d="M468 502.5C470.6 500.3 474.6 500.4 477 502.9C477.1 503 477.3 503.2 477.4 503.4V483.7L463.2 497.9L468 502.5Z" stroke="black" stroke-width="2" stroke-miterlimit="10" stroke-linecap="round" stroke-linejoin="round"/>
<path d="M460.1 526.5C463.8 526.5 466.8 523.5 466.8 519.8C466.8 516.1 463.8 513.1 460.1 513.1C456.4 513.1 453.4 516.1 453.4 519.8C453.4 523.5 456.4 526.5 460.1 526.5Z" stroke="black" stroke-width="2" stroke-miterlimit="10" stroke-linecap="round" stroke-linejoin="round"/>
<path d="M468 502.5C467.9 502.6 467.7 502.7 467.6 502.9C465 505.5 465 509.7 467.6 512.3C470.2 514.9 474.4 514.9 477 512.3C477.1 512.2 477.2 512 477.4 511.9C477.4 511.9 477.4 511.9 477.4 511.8V503.3C477.3 503.1 477.1 503 477 502.8C474.5 500.4 470.6 500.3 468 502.5Z" stroke="black" stroke-width="2" stroke-miterlimit="10" stroke-linecap="round" stroke-linejoin="round"/>
<path d="M418.9 551.6C416.3 554.2 416.3 558.4 418.9 561C419.3 561.4 419.7 561.7 420.2 562V550.6C419.9 550.8 419.6 551 419.3 551.2C419.1 551.4 419 551.5 418.9 551.6Z" stroke="black" stroke-width="2" stroke-miterlimit="10" stroke-linecap="round" stroke-linejoin="round"/>
<path d="M427 562C427.5 561.7 427.9 561.4 428.3 561C428.4 560.9 428.5 560.7 428.7 560.6C430.9 558 430.8 554 428.3 551.6C427.9 551.2 427.5 550.9 427 550.6V562Z" stroke="black" stroke-width="2" stroke-miterlimit="10" stroke-linecap="round" stroke-linejoin="round"/>
<path d="M431 539.4C428.4 542 428.4 546.2 431 548.8C433.6 551.4 437.8 551.4 440.4 548.8C443 546.2 443 542 440.4 539.4C437.9 536.8 433.7 536.8 431 539.4Z" stroke="black" stroke-width="2" stroke-miterlimit="10" stroke-linecap="round" stroke-linejoin="round"/>
<path d="M393.5 577.3V584C393.8 584.5 394.1 584.9 394.5 585.4C397.1 588 401.3 588 403.9 585.4C404 585.3 404.1 585.1 404.3 585C406.5 582.4 406.4 578.4 403.9 576C401.4 573.5 397.5 573.4 394.9 575.6C394.8 575.7 394.6 575.8 394.5 576C394.1 576.4 393.8 576.9 393.5 577.3Z" stroke="black" stroke-width="2" stroke-miterlimit="10" stroke-linecap="round" stroke-linejoin="round"/>
<path d="M411.4 575.2C415.1 575.2 418.1 572.2 418.1 568.5C418.1 564.8 415.1 561.8 411.4 561.8C407.7 561.8 404.7 564.8 404.7 568.5C404.7 572.2 407.7 575.2 411.4 575.2Z" stroke="black" stroke-width="2" stroke-miterlimit="10" stroke-linecap="round" stroke-linejoin="round"/>
<path d="M393.5 591.1V594.7C393.8 593.5 393.8 592.2 393.5 591.1Z" stroke="black" stroke-width="2" stroke-miterlimit="10" stroke-linecap="round" stroke-linejoin="round"/>
<path d="M382.3 588.2C379.7 590.8 379.7 595 382.3 597.6C383.5 598.8 385 599.4 386.6 599.5V586.2C385 586.3 383.5 587 382.3 588.2Z" stroke="black" stroke-width="2" stroke-miterlimit="10" stroke-linecap="round" stroke-linejoin="round"/>
<path d="M443.2 536.7C445.8 539.3 450 539.3 452.6 536.7C452.7 536.6 452.8 536.4 453 536.3C455.2 533.7 455.1 529.7 452.6 527.3C450.1 524.8 446.2 524.7 443.6 526.9C443.5 527 443.3 527.1 443.2 527.3C440.6 529.9 440.6 534.1 443.2 536.7Z" stroke="black" stroke-width="2" stroke-miterlimit="10" stroke-linecap="round" stroke-linejoin="round"/>
<path d="M175.6 437.8C175.8 439 175.9 440.2 175.9 441.4C175.9 443 175.7 444.6 175.3 446.1V455C177 455.1 178.7 455.3 180.5 455.5C186.5 456.3 191.6 460.2 193.9 465.8C195.4 469.4 197.2 473.9 199.3 479.2H207.7H215.5V498.5C218 496 222.3 497.3 222.9 500.8C223 501.5 223.1 502.3 223.2 503H273V437.8H175.6Z" stroke="black" stroke-width="2" stroke-miterlimit="10" stroke-linecap="round" stroke-linejoin="round"/>
<path d="M101.9 491H127C124.3 476.4 130.5 468.1 130.5 468.1C130.5 468.1 136.3 463 146.7 459.1C140.3 455.8 135.9 449.1 135.9 441.4C135.9 440.2 136 438.9 136.2 437.8H77.6001V503H101.9V491V491Z" stroke="black" stroke-width="2" stroke-miterlimit="10" stroke-linecap="round" stroke-linejoin="round"/>
<path d="M175.3 455V446.1C174.5 449.4 172.9 452.4 170.6 454.9C172.2 454.9 173.7 454.9 175.3 455Z" stroke="black" stroke-width="2" stroke-miterlimit="10" stroke-linecap="round" stroke-linejoin="round"/>
<path d="M215.5 522.4V525.4C218.2 534.4 220.5 543.3 222 551.3C223.1 557 222.6 562.8 220.8 568.2H273V503H223.1C223.9 509.9 223 518.4 215.5 522.4Z" stroke="black" stroke-width="2" stroke-miterlimit="10" stroke-linecap="round" stroke-linejoin="round"/>
<path d="M159.5 540.5L158.6 538.2C145.6 544.1 143.6 531.3 136.7 515H101.9H77.6001V568.2H172.6L159.5 540.5Z" stroke="black" stroke-width="2" stroke-miterlimit="10" stroke-linecap="round" stroke-linejoin="round"/>
<path d="M214.6 579.1C212.1 582 209.3 585.3 206.4 588.8C212.1 628.1 203.5 633.4 203.5 633.4H273V568.2H220.8C219.5 572.1 217.4 575.8 214.6 579.1Z" stroke="black" stroke-width="2" stroke-miterlimit="10" stroke-linecap="round" stroke-linejoin="round"/>
<path d="M184.5 619.5L190.5 630.8C190.5 630.8 182.8 633.3 175.4 633.4H203.5L191.5 608.1C188.4 612.3 186 616.3 184.5 619.5Z" stroke="black" stroke-width="2" stroke-miterlimit="10" stroke-linecap="round" stroke-linejoin="round"/>
<path d="M178.6 580.7L175.4 573.9V588.3C176.4 585.7 177.4 583.2 178.6 580.7Z" stroke="black" stroke-width="2" stroke-miterlimit="10" stroke-linecap="round" stroke-linejoin="round"/>
<path d="M299.7 350.1H202V419H299.7V398.4V391.5V350.1ZM293.1 412.1H208.7V357H293.1V412.1Z" stroke="black" stroke-width="2" stroke-miterlimit="10" stroke-linecap="round" stroke-linejoin="round"/>
<path d="M293.1 357H208.7V412.1H293.1V357Z" stroke="black" stroke-width="2" stroke-miterlimit="10" stroke-linecap="round" stroke-linejoin="round"/>
<path d="M326.4 391.5H299.7V398.4H326.4V391.5Z" stroke="black" stroke-width="2" stroke-miterlimit="10" stroke-linecap="round" stroke-linejoin="round"/>
<path d="M427 550.6V534V482.3H420.1V540.9V550.6V562V578.6V633.4H427V571.8V562V550.6Z" stroke="black" stroke-width="2" stroke-miterlimit="10" stroke-linecap="round" stroke-linejoin="round"/>
<path d="M393.5 591.1V584V577.3V574.2V567.6V482.3H386.6V574.5V586.2V599.5V612.2V614.1V633.4H393.5V605.3V594.7V591.1Z" stroke="black" stroke-width="2" stroke-miterlimit="10" stroke-linecap="round" stroke-linejoin="round"/>
<path d="M130.6 363.9V384.6H116.8M130.6 357C115.4 357 103 369.3 103 384.6C103 399.9 115.3 412.2 130.6 412.2C145.8 412.2 158.2 399.9 158.2 384.6C158.2 369.3 145.8 357 130.6 357Z" stroke="black" stroke-width="2" stroke-miterlimit="10" stroke-linecap="round" stroke-linejoin="round"/>
<path d="M116.8 384.5H130.6V363.9" stroke="black" stroke-width="2" stroke-miterlimit="10" stroke-linecap="round" stroke-linejoin="round"/>
<path d="M146.5 485.3C148.7 489.7 150.7 494.1 152.4 498.1V479.1H184H191.9H199.3C197.3 473.9 195.4 469.3 193.9 465.7C191.6 460.1 186.5 456.2 180.5 455.4C178.7 455.2 177 455 175.3 454.9C173.7 454.8 172.1 454.8 170.6 454.8C167 458.8 161.7 461.3 155.9 461.3C152.6 461.3 149.5 460.5 146.7 459C136.3 462.9 130.5 468 130.5 468" stroke="black" stroke-width="2" stroke-miterlimit="10" stroke-linecap="round" stroke-linejoin="round"/>
<path d="M215.5 522.4C223 518.5 223.9 509.9 223.2 503C223.1 502.2 223 501.5 222.9 500.8C222.3 497.3 218 495.9 215.5 498.5V522.4V522.4Z" stroke="black" stroke-width="2" stroke-miterlimit="10" stroke-linecap="round" stroke-linejoin="round"/>
<path d="M171.4 529.4H184V518.9C180.7 521.8 176.5 525.3 171.4 529.4Z" stroke="black" stroke-width="2" stroke-miterlimit="10" stroke-linecap="round" stroke-linejoin="round"/>
<path d="M158.5 513.3C166.1 509.2 176.1 507.4 184 506.6V479.1H152.5V498.1C156.2 506.8 158.5 513.3 158.5 513.3Z" stroke="black" stroke-width="2" stroke-miterlimit="10" stroke-linecap="round" stroke-linejoin="round"/>
<path d="M191.9 491.7V479.1H184V506.6C185.3 506.5 186.5 506.4 187.7 506.3C191.2 506 193.1 510.2 190.7 512.7C189 514.4 186.8 516.5 184 518.9V529.4H215.5V525.3V522.3V498.4V479.1H207.7V491.7H191.9Z" stroke="black" stroke-width="2" stroke-miterlimit="10" stroke-linecap="round" stroke-linejoin="round"/>
<path d="M191.9 491.7H207.7V479.2H199.3H191.9V491.7Z" stroke="black" stroke-width="2" stroke-miterlimit="10" stroke-linecap="round" stroke-linejoin="round"/>
<path d="M130.6 468.1C130.6 468.1 124.4 476.5 127.1 491C127.9 495.4 129.6 500.4 132.5 506C134.1 509.1 135.5 512.1 136.7 515C143.6 531.3 145.6 544.1 158.6 538.2C161.2 537 164.3 535 168 532.2C169.2 531.3 170.3 530.4 171.4 529.5C176.6 525.4 180.7 521.9 184 519C186.8 516.5 189 514.5 190.7 512.8C193.2 510.3 191.2 506.1 187.7 506.4C186.5 506.5 185.3 506.6 184 506.7C176.2 507.5 166.1 509.3 158.5 513.4C158.5 513.4 156.2 506.8 152.4 498.2C150.7 494.2 148.7 489.8 146.5 485.4" stroke="black" stroke-width="2" stroke-miterlimit="10" stroke-linecap="round" stroke-linejoin="round"/>
<path d="M313.1 447.9H286.4V482.3H313.1V447.9Z" stroke="black" stroke-width="2" stroke-miterlimit="10"/>
<path d="M130.6 412.1C145.843 412.1 158.2 399.743 158.2 384.5C158.2 369.257 145.843 356.9 130.6 356.9C115.357 356.9 103 369.257 103 384.5C103 399.743 115.357 412.1 130.6 412.1Z" stroke="black" stroke-width="2" stroke-miterlimit="10"/>
<path d="M175.3 574L175.2 573.7V583C175.8 583.4 176.4 583.8 177.1 584.2C177.6 583.1 178.1 581.9 178.6 580.8L175.3 574Z" stroke="black" stroke-width="2" stroke-miterlimit="10"/>
<path d="M93.8999 503H101.9V491H127C127.8 495.4 129.5 500.4 132.4 506C134 509.1 135.4 512.1 136.6 515H102.5" stroke="black" stroke-width="2" stroke-miterlimit="10"/>
<path d="M273 625.5V568.2V503V437.8H175.5C173.8 428.5 165.7 421.5 155.9 421.5C146.1 421.5 138 428.5 136.3 437.8H77.6001V476.7" stroke="black" stroke-width="2" stroke-miterlimit="10"/>
<path d="M154.9 568.2H172.6L159.5 540.5L158.6 538.2C161.2 537 164.3 535 168 532.2C169.2 531.3 170.3 530.4 171.4 529.5H184H215.5V525.4C218.2 534.4 220.5 543.3 222 551.3C223.1 557 222.6 562.8 220.8 568.2C219.4 572.2 217.3 575.9 214.5 579.1C212 582 209.2 585.3 206.3 588.8C207 593.7 207.5 598 207.8 601.9" stroke="black" stroke-width="2" stroke-miterlimit="10"/>
<path d="M299.7 398.3H326.4V391.5H299.7V350.1H202V419H299.7V398.3Z" stroke="black" stroke-width="2" stroke-miterlimit="10"/>
<path d="M102.6 514.9H101.9H77.6001V568.1H154.9" stroke="black" stroke-width="2" stroke-miterlimit="10" stroke-linecap="round" stroke-linejoin="round"/>
<path d="M184.5 619.5L190.5 630.8C190.5 630.8 182.8 633.3 175.4 633.4H203.5L191.5 608.1C188.4 612.3 186 616.3 184.5 619.5Z" stroke="black" stroke-width="2" stroke-miterlimit="10" stroke-linecap="round" stroke-linejoin="round"/>
<path d="M175.2 588.7C175.2 588.6 175.3 588.5 175.3 588.3C175.9 586.9 176.4 585.5 177 584.1C176.4 583.7 175.8 583.3 175.1 582.9V588.7H175.2Z" stroke="black" stroke-width="2" stroke-miterlimit="10" stroke-linecap="round" stroke-linejoin="round"/>
<path d="M77.6001 476.7V503H93.9001" stroke="black" stroke-width="2" stroke-miterlimit="10" stroke-linecap="round" stroke-linejoin="round"/>
<path d="M319.5 632.7V633.4H326.4V633.2" stroke="black" stroke-width="2" stroke-miterlimit="10" stroke-linecap="round" stroke-linejoin="round"/>
<path d="M477.4 633.4V521.4L457.8 541L433.4 565.4L427 571.8V633.4H420.1V578.7L409 589.7L393.4 605.3V633.3H386.5V614H384.6H359.8V633.3H353V614H326.3V633C331.7 633.3 337.1 633.4 342.6 633.4H477.3H477.4Z" stroke="black" stroke-width="2" stroke-miterlimit="10" stroke-linecap="round" stroke-linejoin="round"/>
<path d="M207.9 601.9C210.1 629.3 203.5 633.4 203.5 633.4H273V625.5" stroke="black" stroke-width="2" stroke-miterlimit="10" stroke-linecap="round" stroke-linejoin="round"/>
<path d="M286.4 614.1V587.4H320.8H353V586.9H335.1H303.6V536.6H311.4H327.2H335.1H353V482.3H326.3V331.3H313.1H301H276.5H264.3H257.4H232.8H127.4H114.2H102H77.4999H65.2999H58.3999H40.3999C40.3999 384 53.8999 433.5 77.5999 476.7V437.8H136.3C138 428.5 146.1 421.5 155.9 421.5C165.7 421.5 173.8 428.5 175.5 437.8H273V503V568.2V625.5C288.1 629.1 303.6 631.5 319.5 632.7V614.1H286.4ZM130.6 412.1C115.4 412.1 103 399.8 103 384.5C103 369.2 115.3 356.9 130.6 356.9C145.8 356.9 158.2 369.2 158.2 384.5C158.2 399.8 145.8 412.1 130.6 412.1ZM313.1 482.3H286.4V447.9H313.1V482.3ZM202 419V350.1H299.7V391.5H326.4V398.4H299.7V419H202Z" stroke="black" stroke-width="2" stroke-miterlimit="10" stroke-linecap="round" stroke-linejoin="round"/>
<path d="M101.9 514V503H93.8999" stroke="black" stroke-width="2" stroke-miterlimit="10" stroke-linecap="round" stroke-linejoin="round"/>
<path d="M93.9001 503H77.6001V515H101.9V514" stroke="black" stroke-width="2" stroke-miterlimit="10" stroke-linecap="round" stroke-linejoin="round"/>
<path d="M102.6 514.9H136.7C135.5 512 134.1 509 132.5 505.9C129.6 500.4 127.9 495.4 127.1 490.9H102V502.9V514C102.2 514.3 102.4 514.6 102.6 514.9Z" stroke="black" stroke-width="2" stroke-miterlimit="10" stroke-linecap="round" stroke-linejoin="round"/>
<path d="M101.9 514.9H102.6C102.4 514.6 102.1 514.3 101.9 514V514.9Z" stroke="black" stroke-width="2" stroke-miterlimit="10" stroke-linecap="round" stroke-linejoin="round"/>
<path d="M175.2 582.9V573.6L172.6 568.1H154.9" stroke="black" stroke-width="2" stroke-miterlimit="10" stroke-linecap="round" stroke-linejoin="round"/>
<path d="M154.9 568.2H77.6H77.5V633.4H175.2C170 633.5 165 632.4 163 628.5C163 628.5 167.7 607.8 175.2 588.7V583" stroke="black" stroke-width="2" stroke-miterlimit="10" stroke-linecap="round" stroke-linejoin="round"/>
<path d="M196.9 544.1C201.7 562.5 204.6 577.1 206.3 588.7C209.2 585.2 212 581.9 214.5 579C217.3 575.8 219.4 572 220.8 568.1C222.6 562.7 223.1 556.9 222 551.2C220.5 543.2 218.2 534.3 215.5 525.3V529.4H184H171.4C170.3 530.3 169.2 531.1 168 532.1C164.3 535 161.2 536.9 158.6 538.1L159.5 540.4" stroke="black" stroke-width="2" stroke-miterlimit="10" stroke-linecap="round" stroke-linejoin="round"/>
<path d="M181.5 587L178.5 580.7C178 581.8 177.5 583 177 584.1" stroke="black" stroke-width="2" stroke-miterlimit="10" stroke-linecap="round" stroke-linejoin="round"/>
<path d="M177.1 584.1C176.5 585.5 175.9 586.9 175.4 588.3C175.4 588.4 175.3 588.5 175.3 588.7C167.8 607.8 163.1 628.5 163.1 628.5C165.1 632.4 170.1 633.5 175.3 633.4H175.4C182.8 633.3 190.5 630.8 190.5 630.8L184.5 619.5C186 616.3 188.5 612.3 191.5 608.1L181.6 587.1" stroke="black" stroke-width="2" stroke-miterlimit="10" stroke-linecap="round" stroke-linejoin="round"/>
<path d="M207.9 601.9C207.6 598 207.1 593.7 206.4 588.8C204.7 577.2 201.8 562.5 197 544.2" stroke="black" stroke-width="2" stroke-miterlimit="10" stroke-linecap="round" stroke-linejoin="round"/>
<path d="M159.5 540.5L172.6 568.2L175.2 573.7L175.3 574L178.5 580.8L181.5 587.1" stroke="black" stroke-width="2" stroke-miterlimit="10" stroke-linecap="round" stroke-linejoin="round"/>
<path d="M181.5 587L191.4 608L203.4 633.3C203.4 633.3 210 629.3 207.8 601.8" stroke="black" stroke-width="2" stroke-miterlimit="10" stroke-linecap="round" stroke-linejoin="round"/>
<path d="M146.8 459.1C149.6 460.5 152.7 461.4 156 461.4C161.8 461.4 167 458.9 170.7 454.9C172.9 452.5 174.6 449.5 175.4 446.1C175.8 444.6 176 443 176 441.4C176 440.2 175.9 438.9 175.7 437.8C174 428.5 165.9 421.5 156.1 421.5C146.3 421.5 138.2 428.5 136.5 437.8C136.3 439 136.2 440.2 136.2 441.4C136 449.1 140.4 455.8 146.8 459.1Z" stroke="black" stroke-width="2" stroke-miterlimit="10" stroke-linecap="round" stroke-linejoin="round"/>
<path d="M366.7 586.9V536.6H359.9H353H335.1V586.9H353H359.9H366.7Z" stroke="black" stroke-width="2" stroke-miterlimit="10" stroke-linecap="round" stroke-linejoin="round"/>
<path d="M327.2 536.6V549.2H311.5V536.6H303.6V586.9H335.1V536.6H327.2Z" stroke="black" stroke-width="2" stroke-miterlimit="10" stroke-linecap="round" stroke-linejoin="round"/>
<path d="M327.3 536.6H311.5V549.2H327.3V536.6Z" stroke="black" stroke-width="2" stroke-miterlimit="10" stroke-linecap="round" stroke-linejoin="round"/>
<path d="M772.8 71.7H752.7L756.8 59.2C729.1 40.2 695.6 29 659.5 29C661.3 30.6 663.2 32.6 664.9 35.1C689.6 33.2 690.8 46.3 690.8 46.3C696.2 51.6 699.6 59 699.6 67.2C699.6 83.4 686.5 96.5 670.3 96.5C670 96.5 669.6 96.5 669.3 96.5L667.4 112.7C669.9 110.8 672.4 109.1 674.7 107.5C688.1 98 698.2 94.7 705.3 94.1V94C735.3 88.2 775.8 147.1 784.3 158.9C785.2 160.2 785.3 161.8 784.5 163.2C770.8 187.1 753.1 198.1 740.5 203.2L759.9 274.5C763.9 268.3 770.8 264.1 778.8 264.1C785 264.1 790.6 266.6 794.6 270.7C798.7 274.8 801.2 280.4 801.2 286.5H831.1V200.8C831.2 149.3 808.6 103.2 772.8 71.7Z" stroke="black" stroke-width="2" stroke-miterlimit="10" stroke-linecap="round" stroke-linejoin="round"/>
<path d="M662.8 327.6C662.8 325.1 662.8 322.6 662.8 320.1L660.3 319.7C660.3 319.7 660 295.3 660.5 267.1L653.8 287.4H628.4V331.3H665.4C664 330.8 662.9 329.3 662.8 327.6Z" stroke="black" stroke-width="2" stroke-miterlimit="10" stroke-linecap="round" stroke-linejoin="round"/>
<path d="M727.1 304.6C718.1 294 708.3 279.7 703.6 263.8C703 265.9 702.4 268 701.8 270C698.1 283.8 689.1 315.3 680.9 323.3L678.3 322.8C674.4 327.7 670.9 330.2 667.9 331.3H722.7V308.9L727.1 304.6Z" stroke="black" stroke-width="2" stroke-miterlimit="10" stroke-linecap="round" stroke-linejoin="round"/>
<path d="M641.6 255.7L650 230.2H661.7C662.4 216.1 663.4 203.4 664.9 194.8C664.9 194.8 665.3 194.7 665.9 194.5C666.6 182.4 667.4 171.5 668.2 162C659.2 168.2 649.8 172.7 641.1 176.2C644.4 181.8 645 188.9 642 195.2L628.5 224V273.2L634.3 255.7H641.6Z" stroke="black" stroke-width="2" stroke-miterlimit="10" stroke-linecap="round" stroke-linejoin="round"/>
<path d="M642 74.7C641.8 73.9 641.6 73 641.5 72.2C641.4 73 641.6 73.9 642 74.7Z" stroke="black" stroke-width="2" stroke-miterlimit="10" stroke-linecap="round" stroke-linejoin="round"/>
<path d="M733.1 153.9C733.5 154.2 733.8 154.5 734.2 154.8C731.3 152.3 728.6 149.9 726.2 147.6C729.2 159.9 732.3 172 735.3 183.9C739.9 172.9 743.8 162.5 743.8 162.5C739.9 159.5 736.4 156.6 733.1 153.9Z" stroke="black" stroke-width="2" stroke-miterlimit="10" stroke-linecap="round" stroke-linejoin="round"/>
<path d="M728 149.3C728 149.3 728.1 149.3 728 149.3C728.1 149.3 728 149.3 728 149.3Z" stroke="black" stroke-width="2" stroke-miterlimit="10" stroke-linecap="round" stroke-linejoin="round"/>
<path d="M763.3 286.5H767.7L779.6 298.4L767.7 286.5H763.3Z" stroke="black" stroke-width="2" stroke-miterlimit="10" stroke-linecap="round" stroke-linejoin="round"/>
<path d="M477.4 29V105.9V138.2V180.3H502.8L516.2 146.3C516.2 146.3 524.6 142 540 140.4C540.2 139 540.5 137.6 540.9 136.3C540.1 133.7 539.7 131 539.7 128.1C539.7 112 553.4 98.9 570.3 98.9C587.2 98.9 600.9 112 600.9 128.1C600.9 131 600.5 133.7 599.6 136.4C600.4 139.1 600.8 142 600.8 145C600.8 146.6 600.7 148.2 600.4 149.8C607.4 152.8 614.2 156.4 620.6 160.5L620.8 160.6C628.1 151.4 634.9 143.4 641.4 136.6L637.2 137.2L638.4 127.3L620.6 129.8L625.9 83.9L644.6 81.2C643.5 79.2 642.7 77 642.1 74.8L627.7 77.4C625.7 77.8 624.5 75.2 626.1 73.9C628.4 72 631.5 69.8 635.3 67.3C635.3 67.3 634.1 59.2 637.6 51.1L627.1 38L632.3 29.1C632.3 29.1 632.4 29.1 632.4 29H477.4ZM495 55.4H525L535.4 87H529.5L535.4 105H505.4L495 73.4H500.9L495 55.4Z" stroke="black" stroke-width="2" stroke-miterlimit="10" stroke-linecap="round" stroke-linejoin="round"/>
<path d="M790.1 308.9V331.3H853.6V308.9H790.1Z" stroke="black" stroke-width="2" stroke-miterlimit="10" stroke-linecap="round" stroke-linejoin="round"/>
<path d="M767.7 286.5L779.6 298.4L790.1 308.9H853.6L831.2 286.5H801.3H767.7Z" stroke="black" stroke-width="2" stroke-miterlimit="10" stroke-linecap="round" stroke-linejoin="round"/>
<path d="M790.1 308.9L779.6 298.4L767.7 286.5H763.3L766.6 298.6L770.8 313.9V314C772.2 318.9 773.4 322.9 774.3 326C775.2 329.1 772.1 332 769.1 330.7C764.2 328.6 759.3 325.8 754.7 322.3C751.7 323.1 748.6 323.5 745.5 323.1C745.5 323.1 736.9 316 727.2 304.6L722.9 308.9V331.3H790.1V308.9V308.9Z" stroke="black" stroke-width="2" stroke-miterlimit="10" stroke-linecap="round" stroke-linejoin="round"/>
<path d="M767.7 286.5H801.3C801.3 274.1 791.3 264.1 778.9 264.1C771 264.1 764 268.2 760 274.4L763.3 286.5H767.7V286.5Z" stroke="black" stroke-width="2" stroke-miterlimit="10" stroke-linecap="round" stroke-linejoin="round"/>
<path d="M505.4 105H535.4L529.5 87H505.4L500.9 73.4H495L505.4 105Z" stroke="black" stroke-width="2" stroke-miterlimit="10" stroke-linecap="round" stroke-linejoin="round"/>
<path d="M529.5 87H535.4L525 55.4H495L500.9 73.4L505.4 87H529.5Z" stroke="black" stroke-width="2" stroke-miterlimit="10" stroke-linecap="round" stroke-linejoin="round"/>
<path d="M793.1 40.1L782.7 71.7H752.7L756.8 59.2L763.1 40.1H793.1Z" stroke="black" stroke-width="2" stroke-miterlimit="10" stroke-linecap="round" stroke-linejoin="round"/>
<path d="M667.4 112.7L669.3 96.5C663 96.3 657.2 94.1 652.5 90.5L648.4 125.8L638.2 127.3L637 137.2L641.2 136.6C650.9 126.3 659.6 118.6 667.4 112.7Z" stroke="black" stroke-width="2" stroke-miterlimit="10" stroke-linecap="round" stroke-linejoin="round"/>
<path d="M652.5 90.5C649.2 88 646.5 84.8 644.5 81.1L625.8 83.8L620.5 129.7L638.3 127.2L648.5 125.7L652.5 90.5Z" stroke="black" stroke-width="2" stroke-miterlimit="10" stroke-linecap="round" stroke-linejoin="round"/>
<path d="M639.6 261.9L641.6 255.8H634.2L628.4 273.3V287.4H653.8L660.5 267.1C660.5 265.4 660.6 263.7 660.6 261.9H639.6Z" stroke="black" stroke-width="2" stroke-miterlimit="10" stroke-linecap="round" stroke-linejoin="round"/>
<path d="M641.6 255.7L639.6 261.8H660.6C660.8 251.2 661.2 240.4 661.7 230.2H650L641.6 255.7Z" stroke="black" stroke-width="2" stroke-miterlimit="10" stroke-linecap="round" stroke-linejoin="round"/>
<path d="M642 195.2C644.9 188.9 644.4 181.9 641.1 176.2C636.7 177.9 632.4 179.3 628.5 180.5V224L642 195.2Z" stroke="black" stroke-width="2" stroke-miterlimit="10" stroke-linecap="round" stroke-linejoin="round"/>
<path d="M536.7 180.2H606.6C606.7 179.6 606.9 179 607.3 178.4C611.9 171.9 616.4 166 620.8 160.5L620.6 160.4C614.2 156.2 607.4 152.6 600.4 149.7C598.1 164.3 585.5 175.5 570.2 175.5C553.3 175.5 539.6 161.8 539.6 144.9C539.6 143.4 539.7 141.9 539.9 140.4C524.5 142 516.1 146.3 516.1 146.3" stroke="black" stroke-width="2" stroke-miterlimit="10" stroke-linecap="round" stroke-linejoin="round"/>
<path d="M570.2 175.5C585.5 175.5 598.1 164.3 600.4 149.7C600.6 148.1 600.8 146.5 600.8 144.9C600.8 141.9 600.4 139 599.6 136.3C595.9 148.4 584.2 157.2 570.3 157.2C556.4 157.2 544.7 148.3 541 136.2C540.6 137.5 540.3 138.9 540.1 140.3C539.9 141.8 539.8 143.3 539.8 144.8C539.6 161.8 553.3 175.5 570.2 175.5Z" stroke="black" stroke-width="2" stroke-miterlimit="10" stroke-linecap="round" stroke-linejoin="round"/>
<path d="M570.2 157.2C584.1 157.2 595.8 148.4 599.5 136.3C600.3 133.7 600.8 130.9 600.8 128C600.8 111.9 587.1 98.8 570.2 98.8C553.3 98.8 539.6 111.9 539.6 128C539.6 130.8 540 133.6 540.8 136.2C544.6 148.4 556.3 157.2 570.2 157.2ZM570.2 144.2C563.4 144.2 557.9 141 557.9 137C557.9 133 563.4 129.8 570.2 129.8C577 129.8 582.5 133 582.5 137C582.5 141 577 144.2 570.2 144.2Z" stroke="black" stroke-width="2" stroke-miterlimit="10" stroke-linecap="round" stroke-linejoin="round"/>
<path d="M582.5 137.1C582.5 133.1 577 129.9 570.2 129.9C563.4 129.9 557.9 133.1 557.9 137.1C557.9 141.1 563.4 144.3 570.2 144.3C577 144.3 582.5 141 582.5 137.1Z" stroke="black" stroke-width="2" stroke-miterlimit="10" stroke-linecap="round" stroke-linejoin="round"/>
<path d="M674.7 107.5C672.4 109 670 110.7 667.4 112.6C659.6 118.5 650.9 126.3 641.3 136.4C634.8 143.3 628 151.2 620.7 160.4C616.4 165.9 611.9 171.9 607.2 178.3C606.8 178.9 606.6 179.5 606.5 180.1H628.3V180.4C632.3 179.2 636.5 177.8 640.9 176.1C649.7 172.7 659 168.1 668 161.9C669.4 145.9 670.8 133.5 671.9 124.6" stroke="black" stroke-width="2" stroke-miterlimit="10" stroke-linecap="round" stroke-linejoin="round"/>
<path d="M678.4 322.8L662.8 320.1C662.8 322.6 662.8 325.1 662.8 327.6C662.8 329.4 664 330.8 665.5 331.3C666.3 331.6 667.1 331.6 668 331.3C671 330.2 674.5 327.7 678.4 322.8Z" stroke="black" stroke-width="2" stroke-miterlimit="10" stroke-linecap="round" stroke-linejoin="round"/>
<path d="M701.8 270C702.4 268 703 265.9 703.6 263.8C703.6 263.7 703.5 263.6 703.5 263.4C703.5 263.4 702.9 266 701.8 270Z" stroke="black" stroke-width="2" stroke-miterlimit="10" stroke-linecap="round" stroke-linejoin="round"/>
<path d="M769 330.7C772 332 775.2 329.1 774.2 326C773.3 322.9 772.1 318.9 770.7 314C770.7 314 763.4 320 754.5 322.3C759.2 325.8 764.1 328.7 769 330.7Z" stroke="black" stroke-width="2" stroke-miterlimit="10" stroke-linecap="round" stroke-linejoin="round"/>
<path d="M672.1 124.8C671 133.7 669.6 146.1 668.2 162.1C667.4 171.6 666.6 182.5 665.9 194.6C672.4 192.9 709.1 183.6 734.5 185.7C734.8 185.1 735 184.4 735.3 183.8C732.3 171.9 729.2 159.8 726.2 147.5C719 140.4 714.1 133.9 710.9 128" stroke="black" stroke-width="2" stroke-miterlimit="10" stroke-linecap="round" stroke-linejoin="round"/>
<path d="M705.3 94.1C698.2 94.8 688.1 98 674.7 107.5" stroke="black" stroke-width="2" stroke-miterlimit="10" stroke-linecap="round" stroke-linejoin="round"/>
<path d="M652.5 90.5C657.2 94.1 663 96.3 669.3 96.5C669.6 96.5 670 96.5 670.3 96.5C686.5 96.5 699.6 83.4 699.6 67.2C699.6 59 696.2 51.6 690.8 46.3L657 59.1C648.6 63.2 641.9 67.9 641.6 72.2C641.7 73 641.9 73.9 642.1 74.7C642.7 77 643.5 79.1 644.6 81.1C646.5 84.8 649.2 88 652.5 90.5Z" stroke="black" stroke-width="2" stroke-miterlimit="10" stroke-linecap="round" stroke-linejoin="round"/>
<path d="M644.4 42.0001C648.1 39.0001 653.2 36.6001 660.3 35.6001C661.9 35.4001 663.4 35.2001 664.9 35.1001C663.1 32.6001 661.3 30.6001 659.5 29.0001C647.2 18.6001 633.9 27.9001 632.5 29.0001C632.4 29.1001 632.4 29.1001 632.4 29.1001L644.4 42.0001Z" stroke="black" stroke-width="2" stroke-miterlimit="10" stroke-linecap="round" stroke-linejoin="round"/>
<path d="M690.7 46.3C690.7 46.3 689.6 33.2 664.8 35.1C663.3 35.2 661.8 35.4 660.2 35.6C653.1 36.6 648 39 644.3 42L637.5 51.1C634 59.2 635.2 67.3 635.2 67.3C647.1 59.5 666 50 690.7 46.3Z" stroke="black" stroke-width="2" stroke-miterlimit="10" stroke-linecap="round" stroke-linejoin="round"/>
<path d="M690.7 46.3C690.7 46.3 671.3 51.9 656.9 59.1L690.7 46.3Z" stroke="black" stroke-width="2" stroke-miterlimit="10" stroke-linecap="round" stroke-linejoin="round"/>
<path d="M642 74.7C641.6 73.9 641.4 73 641.5 72.2C641.9 67.9 648.6 63.2 656.9 59.1C671.4 52 690.7 46.3 690.7 46.3C666 50 647.1 59.5 635.2 67.2C631.4 69.6 628.3 71.9001 626 73.8001C624.4 75.1001 625.6 77.6001 627.6 77.3001L642 74.7Z" stroke="black" stroke-width="2" stroke-miterlimit="10" stroke-linecap="round" stroke-linejoin="round"/>
<path d="M644.3 42H644.4L632.3 29.1L627.1 38L637.5 51.1L644.3 42Z" stroke="black" stroke-width="2" stroke-miterlimit="10" stroke-linecap="round" stroke-linejoin="round"/>
<path d="M766.6 298.6L763.3 286.5L760 274.4L740.5 203.1L766.6 298.6Z" stroke="black" stroke-width="2" stroke-miterlimit="10" stroke-linecap="round" stroke-linejoin="round"/>
<path d="M740.3 203.1C737.5 204.2 734.9 205.1 732.6 205.7C729.4 206.6 726.6 203.3 728 200.3C730 196.1 732.3 190.9 734.4 185.8C709 183.7 672.3 192.9 665.8 194.7C665.1 194.9 664.8 195 664.8 195C663.3 203.6 662.3 216.3 661.6 230.4C661.1 240.6 660.8 251.5 660.5 262C660.5 263.7 660.4 265.5 660.4 267.2C659.9 295.4 660.2 319.8 660.2 319.8L662.7 320.2L678.3 322.9L680.9 323.4C689 315.4 698.1 283.9 701.8 270.1C702.9 266.1 703.5 263.5 703.5 263.5C703.5 263.6 703.6 263.7 703.6 263.9C708.3 279.8 718.1 294.1 727.1 304.7C736.7 316.1 745.4 323.2 745.4 323.2C748.5 323.6 751.7 323.2 754.6 322.4C763.5 320 770.8 314.1 770.8 314.1V314C764.2 291.2 752.7 250.4 740.3 203.1Z" stroke="black" stroke-width="2" stroke-miterlimit="10" stroke-linecap="round" stroke-linejoin="round"/>
<path d="M710.9 128C714.2 133.9 719.1 140.4 726.2 147.5C726.8 148.1 727.4 148.7 728 149.3C729.6 150.8 731.3 152.3 733.1 153.9C736.3 156.7 739.9 159.5 743.9 162.4C743.9 162.4 739.9 172.8 735.4 183.8C735.1 184.4 734.9 185.1 734.6 185.7C732.4 190.9 730.2 196 728.2 200.2C726.8 203.2 729.5 206.5 732.8 205.6C735 205 737.6 204.2 740.5 203C740.6 203 740.6 202.9 740.7 202.9C753.3 197.8 771 186.8 784.7 163C785.5 161.7 785.4 160 784.5 158.7C775.9 146.8 735.4 87.9 705.5 93.8V93.9" stroke="black" stroke-width="2" stroke-miterlimit="10" stroke-linecap="round" stroke-linejoin="round"/>
<path d="M740.5 203.1C740.4 203.1 740.4 203.1 740.3 203.2C752.7 250.4 764.2 291.2 770.7 314L766.5 298.7L740.5 203.1Z" stroke="black" stroke-width="2" stroke-miterlimit="10" stroke-linecap="round" stroke-linejoin="round"/>
<path opacity="0.25" d="M740.5 203.1C740.4 203.1 740.4 203.1 740.3 203.2C752.7 250.4 764.2 291.2 770.7 314L766.5 298.7L740.5 203.1Z" stroke="black" stroke-width="2" stroke-miterlimit="10" stroke-linecap="round" stroke-linejoin="round"/>
<path d="M733.1 153.9C731.3 152.4 729.6 150.8 728 149.3C727.4 148.7 726.8 148.1 726.2 147.5C728.6 149.9 731.3 152.3 734.2 154.7C733.8 154.5 733.5 154.2 733.1 153.9Z" stroke="black" stroke-width="2" stroke-miterlimit="10" stroke-linecap="round" stroke-linejoin="round"/>
<path d="M477.4 331.3V196.8V180.2H444H431.7H326.4V236.2V260.9V283.8V331.3H477.4Z" stroke="black" stroke-width="2" stroke-miterlimit="10" stroke-linecap="round" stroke-linejoin="round"/>
<path d="M386.6 482.3H393.5H420.1H427H453.7H460.6H477.4V331.3H326.4V482.3H353H359.9H386.6Z" stroke="black" stroke-width="2" stroke-miterlimit="10" stroke-linecap="round" stroke-linejoin="round"/>
<path d="M477.4 482.3V483.6V503.4V511.9V512V521.4V633.4L511 599.8L517.8 592.9L544.5 566.3L551.4 559.4L622.6 488.2L628.5 482.3H477.4Z" stroke="black" stroke-width="2" stroke-miterlimit="10" stroke-linecap="round" stroke-linejoin="round"/>
<path d="M477.4 331.3V482.3H628.5V458.4V331.3H477.4Z" stroke="black" stroke-width="2" stroke-miterlimit="10" stroke-linecap="round" stroke-linejoin="round"/>
<path d="M536.7 180.2L523.2 205.1L538.6 219.9L548.6 229.5L545.3 232.6C571.9 226.4 570.2 239.6 570.2 239.6C565.4 267.2 548.6 256.8 548.6 256.8L535.8 241.6L530.1 247L515.2 236.4L497.6 224C495.5 222.5 493.8 220.5 492.8 218.3C491.1 214.7 490.9 210.6 492.4 206.7L502.8 180.2H477.4V331.2H628.4V180.2H536.7V180.2Z" stroke="black" stroke-width="2" stroke-miterlimit="10" stroke-linecap="round" stroke-linejoin="round"/>
<path d="M536.7 180.2L523.1 205.2L538.6 220" stroke="black" stroke-width="2" stroke-miterlimit="10" stroke-linecap="round" stroke-linejoin="round"/>
<path d="M492.8 218.3C491.1 214.7 490.9 210.6 492.4 206.7L502.8 180.2L516.2 146.2" stroke="black" stroke-width="2" stroke-miterlimit="10" stroke-linecap="round" stroke-linejoin="round"/>
<path d="M570.2 239.7C565.4 267.3 548.6 256.9 548.6 256.9L535.8 241.7L545.3 232.7C571.9 226.5 570.2 239.7 570.2 239.7Z" stroke="black" stroke-width="2" stroke-miterlimit="10" stroke-linecap="round" stroke-linejoin="round"/>
</g>
<defs>
<clipPath id="clip0">
<rect width="901.6" height="634.6" fill="white"/>
</clipPath>
</defs>
</svg>
