<svg width="43" height="63" viewBox="0 0 43 63" fill="none" xmlns="http://www.w3.org/2000/svg">
<g clip-path="url(#clip0)">
<path d="M20.9909 17.7236H3.05469V35.4472H20.9909V17.7236Z" fill="#0980D3"/>
<path d="M20.9909 0H3.05469V17.7236H20.9909V0Z" fill="#00AFF0"/>
<path d="M38.9272 17.7236H20.991V35.4472H38.9272V17.7236Z" fill="#1351B5"/>
<path d="M38.9272 0H20.991V17.7236H38.9272V0Z" fill="#0980D3"/>
<path d="M29.9983 8.82312H12.062V26.5467H29.9983V8.82312Z" fill="#F1F2F2"/>
<path d="M20.991 8.82312H12.062V17.6462H20.991V8.82312Z" fill="white"/>
<path d="M29.9199 17.7236H20.991V26.5467H29.9199V17.7236Z" fill="#E5E7E8"/>
<path fill-rule="evenodd" clip-rule="evenodd" d="M29.9983 26.5467H20.991V35.4472" fill="#D1D3D4"/>
<path d="M2.5847 53.403H0V40.7875H2.5847V47.2113L5.4827 44.1929H8.69399L5.1694 47.9853L8.85064 53.403H5.79599L3.44627 49.9202L2.5847 50.7715V53.403Z" fill="black"/>
<path d="M18.093 48.8366C18.093 50.1523 17.623 51.2359 16.6831 52.1646C15.7432 53.0934 14.5684 53.5577 13.1585 53.5577C11.7487 53.5577 10.5738 53.0934 9.63396 52.1646C8.69407 51.2359 8.22412 50.1523 8.22412 48.8366C8.22412 47.5209 8.69407 46.4373 9.63396 45.5086C10.5738 44.5799 11.7487 44.1155 13.1585 44.1155C14.5684 44.1155 15.7432 44.5799 16.6831 45.5086C17.623 46.4373 18.093 47.5209 18.093 48.8366ZM10.8871 48.8366C10.8871 49.6106 11.1221 50.1523 11.5137 50.6941C11.9054 51.1585 12.4536 51.3907 13.1585 51.3907C13.8635 51.3907 14.4117 51.1585 14.8034 50.6941C15.195 50.2297 15.43 49.6106 15.43 48.8366C15.43 48.0627 15.195 47.4435 14.8034 46.9791C14.4117 46.5147 13.8635 46.2826 13.1585 46.2826C12.4536 46.2826 11.9054 46.5147 11.5137 46.9791C11.1221 47.5209 10.8871 48.0627 10.8871 48.8366Z" fill="black"/>
<path d="M27.6485 48.4496V53.403H25.0638V48.4496C25.0638 47.7531 24.9854 47.2113 24.7505 46.8243C24.5155 46.5147 24.2022 46.2826 23.6539 46.2826C23.184 46.2826 22.714 46.4373 22.3224 46.8243C21.9308 47.2113 21.7742 47.7531 21.7742 48.4496V53.403H19.1895V44.2703H21.7742V45.2764C22.4791 44.5025 23.2623 44.1155 24.2022 44.1155C24.7505 44.1155 25.2987 44.2703 25.7687 44.6572C26.2386 44.9668 26.6303 45.4312 26.8652 45.8956C27.2568 45.3538 27.7268 44.8894 28.2751 44.5799C28.9017 44.2703 29.4499 44.1155 30.0765 44.1155C31.1731 44.1155 32.0346 44.4251 32.7395 45.0442C33.3661 45.6634 33.7578 46.5921 33.7578 47.8305V53.403H31.1731V48.4496C31.1731 47.0565 30.6248 46.36 29.6066 46.36C29.0583 46.36 28.6667 46.5147 28.2751 46.9017C27.8051 47.2113 27.6485 47.7531 27.6485 48.4496Z" fill="black"/>
<path d="M42.9999 53.403H40.5718V52.3194C39.9452 53.1708 39.0837 53.5577 38.1438 53.5577C37.2039 53.5577 36.3423 53.2482 35.7157 52.7064C35.0891 52.1646 34.6975 51.3907 34.6975 50.4619C34.6975 49.5332 35.0108 48.8366 35.7157 48.3722C36.4206 47.9079 37.3605 47.6757 38.5354 47.6757H40.4935V47.5983C40.4935 46.5921 39.9452 46.1278 38.927 46.1278C38.4571 46.1278 37.9871 46.2052 37.5172 46.36C37.0472 46.5147 36.5773 46.7469 36.264 46.9791L35.0891 45.3538C36.264 44.5799 37.5955 44.1155 39.162 44.1155C40.2585 44.1155 41.1984 44.4251 41.9033 44.9668C42.6083 45.5086 42.9999 46.36 42.9999 47.5983V53.403ZM40.4152 49.9202V49.4558H38.7704C37.7522 49.4558 37.2039 49.7654 37.2039 50.3845C37.2039 50.6941 37.3605 50.9263 37.5955 51.1585C37.8305 51.3133 38.2221 51.3907 38.6137 51.3907C39.0053 51.3907 39.4753 51.2359 39.7886 51.0037C40.1802 50.7715 40.4152 50.3845 40.4152 49.9202Z" fill="black"/>
<path d="M4.22944 59.1302V61.4521H3.28955V55.4152H4.22944V57.8919C4.38609 57.6597 4.54274 57.4275 4.85603 57.2727C5.09101 57.1179 5.4043 57.0405 5.7176 57.0405C6.18755 57.0405 6.57917 57.1953 6.89246 57.5049C7.20576 57.8145 7.36241 58.2015 7.36241 58.8206V61.4521H6.42252V59.0528C6.42252 58.2789 6.10922 57.8919 5.4043 57.8919C5.09101 57.8919 4.77771 57.9693 4.54274 58.2015C4.30777 58.4336 4.22944 58.7432 4.22944 59.1302Z" fill="#424242"/>
<path d="M12.6885 59.672H9.24223C9.24223 59.9816 9.39887 60.2137 9.71217 60.4459C9.94714 60.6007 10.2604 60.7555 10.6521 60.7555C11.2003 60.7555 11.592 60.6007 11.9052 60.2138L12.4535 60.7555C11.9836 61.2199 11.357 61.4521 10.6521 61.4521C10.0255 61.4521 9.55552 61.2199 9.08558 60.8329C8.69396 60.4459 8.45898 59.9042 8.45898 59.2076C8.45898 58.511 8.69396 57.9693 9.08558 57.5823C9.4772 57.1953 10.0255 56.9631 10.6521 56.9631C11.2787 56.9631 11.7486 57.1179 12.1402 57.5049C12.5318 57.8919 12.7668 58.3563 12.7668 58.9754V59.672H12.6885ZM9.24223 58.9754H11.7486C11.7486 58.5884 11.6703 58.3563 11.4353 58.1241C11.2003 57.8919 10.887 57.8145 10.5737 57.8145C10.2604 57.8145 9.94714 57.8919 9.63385 58.1241C9.39887 58.3563 9.24223 58.6658 9.24223 58.9754Z" fill="#424242"/>
<path d="M14.5683 61.4521H13.6284V55.4152H14.5683V61.4521Z" fill="#424242"/>
<path d="M18.2496 57.1179C18.7979 57.1179 19.3462 57.3501 19.7378 57.7371C20.1294 58.1241 20.3644 58.6658 20.3644 59.3624C20.3644 60.0589 20.1294 60.6007 19.7378 60.9877C19.3462 61.3747 18.8762 61.6069 18.328 61.6069C17.7797 61.6069 17.3097 61.3747 16.8398 60.9103V63.1548H15.8999V57.2727H16.8398V58.0467C17.1531 57.3501 17.7014 57.1179 18.2496 57.1179ZM16.8398 59.285C16.8398 59.672 16.9964 60.059 17.2314 60.2911C17.4664 60.5233 17.7797 60.6781 18.1713 60.6781C18.5629 60.6781 18.8762 60.5233 19.1112 60.2911C19.3462 60.059 19.5028 59.672 19.5028 59.285C19.5028 58.898 19.3462 58.511 19.1112 58.2789C18.8762 57.9693 18.5629 57.8919 18.1713 57.8919C17.7797 57.8919 17.4664 58.0467 17.2314 58.2789C16.9181 58.5884 16.8398 58.898 16.8398 59.285Z" fill="#424242"/>
<path d="M21.7741 60.9103C21.3824 60.5233 21.1475 59.9816 21.1475 59.285C21.1475 58.5884 21.3824 58.0467 21.7741 57.6597C22.1657 57.2727 22.7139 57.0405 23.2622 57.0405C23.8105 57.0405 24.2804 57.2727 24.6721 57.7371V55.3378H25.6119V61.3747H24.6721V60.7555C24.3588 61.2199 23.8105 61.4521 23.1839 61.4521C22.6356 61.5295 22.1657 61.2973 21.7741 60.9103ZM22.0874 59.3624C22.0874 59.7494 22.244 60.1364 22.479 60.3685C22.7139 60.6007 23.0272 60.7555 23.4189 60.7555C23.8105 60.7555 24.1238 60.6007 24.3588 60.3685C24.5937 60.1364 24.7504 59.7494 24.7504 59.3624C24.7504 58.9754 24.5937 58.5884 24.3588 58.3563C24.1238 58.0467 23.8105 57.9693 23.4189 57.9693C23.0272 57.9693 22.7139 58.0467 22.479 58.2789C22.244 58.5111 22.0874 58.898 22.0874 59.3624Z" fill="#424242"/>
<path d="M31.0164 59.672H27.5701C27.5701 59.9816 27.7268 60.2137 28.0401 60.4459C28.275 60.6007 28.5883 60.7555 28.9799 60.7555C29.5282 60.7555 29.9198 60.6007 30.2331 60.2138L30.7814 60.7555C30.3115 61.2199 29.6849 61.4521 28.9799 61.4521C28.3533 61.4521 27.8834 61.2199 27.4135 60.8329C27.0218 60.4459 26.7869 59.9042 26.7869 59.2076C26.7869 58.511 27.0218 57.9693 27.4135 57.5823C27.8051 57.1953 28.3533 56.9631 28.9799 56.9631C29.6065 56.9631 30.0765 57.1179 30.4681 57.5049C30.8597 57.8919 31.0947 58.3563 31.0947 58.9754V59.672H31.0164ZM27.5701 58.9754H30.0765C30.0765 58.5884 29.9982 58.3563 29.7632 58.1241C29.5282 57.8919 29.2149 57.8145 28.9016 57.8145C28.5883 57.8145 28.275 57.8919 27.9617 58.1241C27.7268 58.3563 27.5701 58.6658 27.5701 58.9754Z" fill="#424242"/>
<path d="M35.0892 60.1363C35.0892 60.5233 34.9326 60.9103 34.6193 61.1425C34.306 61.3747 33.9144 61.5295 33.4444 61.5295C33.1311 61.5295 32.8178 61.4521 32.4262 61.3747C32.1129 61.2973 31.7996 61.0651 31.4863 60.9103L31.9563 60.2137C32.4262 60.6007 32.9745 60.7555 33.4444 60.7555C33.6794 60.7555 33.8361 60.6781 33.9144 60.6007C34.071 60.5233 34.071 60.3685 34.071 60.2137C34.071 59.9816 33.7577 59.8268 33.2095 59.5946C33.1311 59.5946 33.1311 59.5946 33.1311 59.5946C32.1912 59.3624 31.7996 58.9754 31.7996 58.3563C31.7996 57.9693 31.9563 57.6597 32.2696 57.4275C32.5829 57.1953 32.9745 57.0405 33.5228 57.0405C33.9927 57.0405 34.4626 57.1953 34.9326 57.5049L34.6193 58.2015C34.2277 57.9693 33.9144 57.8145 33.4444 57.8145C33.2095 57.8145 33.0528 57.8919 32.8962 57.9693C32.7395 58.0467 32.6612 58.2015 32.6612 58.3563C32.6612 58.511 32.7395 58.5884 32.8962 58.6658C32.9745 58.7432 33.1311 58.7432 33.2878 58.8206C33.4444 58.898 33.6011 58.898 33.7577 58.9754C33.9144 59.0528 33.9927 59.0528 34.1493 59.1302C34.306 59.2076 34.3843 59.285 34.541 59.3624C34.9326 59.4398 35.0892 59.7494 35.0892 60.1363Z" fill="#424242"/>
<path d="M37.0473 61.4521H36.1074V55.4152H37.0473V58.9754L38.8488 57.1179H40.0236L38.3788 58.898L40.1803 61.5295H39.0837L37.7522 59.5946L37.1256 60.2911V61.4521H37.0473Z" fill="#424242"/>
</g>
<defs>
<clipPath id="clip0">
<rect width="43" height="63" fill="white"/>
</clipPath>
</defs>
</svg>
