<svg width="26" height="26" viewBox="0 0 26 26" fill="none" xmlns="http://www.w3.org/2000/svg">
<path fill-rule="evenodd" clip-rule="evenodd" d="M13 1H1V13V25H13H25V13V1H13Z" stroke="black" stroke-linecap="round" stroke-linejoin="round"/>
<path fill-rule="evenodd" clip-rule="evenodd" d="M9.25 13H5.5V20.5H13V16.75V13H9.25Z" stroke="black" stroke-linecap="round" stroke-linejoin="round"/>
<path d="M16.75 20.5C18.8211 20.5 20.5 18.8211 20.5 16.75C20.5 14.6789 18.8211 13 16.75 13C14.6789 13 13 14.6789 13 16.75C13 18.8211 14.6789 20.5 16.75 20.5Z" stroke="black" stroke-linecap="round" stroke-linejoin="round"/>
<path fill-rule="evenodd" clip-rule="evenodd" d="M20.5 5.5H13V9.25C13 7.17958 11.3204 5.5 9.25 5.5C7.17958 5.5 5.5 7.17958 5.5 9.25C5.5 11.3204 7.17958 13 9.25 13C11.3204 13 13 11.3204 13 9.25V13H16.75H20.5V5.5Z" stroke="black" stroke-linecap="round" stroke-linejoin="round"/>
</svg>
