<svg width="26" height="26" viewBox="0 0 26 26" fill="none" xmlns="http://www.w3.org/2000/svg">
<path d="M13 13H0V26H13V13Z" fill="#0980D3"/>
<path d="M13 0H0V13H13V0Z" fill="#00AFF0"/>
<path d="M26 13H13V26H26V13Z" fill="#1351B5"/>
<path d="M26 0H13V13H26V0Z" fill="#0980D3"/>
<path d="M13 13H4.875V21.125H13V13Z" fill="white"/>
<path fill-rule="evenodd" clip-rule="evenodd" d="M8.9375 13C6.69454 13 4.875 11.1805 4.875 8.9375C4.875 6.69454 6.69454 4.875 8.9375 4.875C11.1805 4.875 13 6.69454 13 8.9375C13 11.1805 11.1805 13 8.9375 13Z" fill="white"/>
<path fill-rule="evenodd" clip-rule="evenodd" d="M17.0625 21.125C14.8195 21.125 13 19.3055 13 17.0625C13 14.8195 14.8195 13 17.0625 13C19.3055 13 21.125 14.8195 21.125 17.0625C21.125 19.3055 19.3055 21.125 17.0625 21.125Z" fill="white"/>
<path d="M21.125 4.875H13V13H21.125V4.875Z" fill="white"/>
</svg>
