<svg width="26" height="26" viewBox="0 0 26 26" fill="none" xmlns="http://www.w3.org/2000/svg">
<path d="M13 13H0V26H13V13Z" fill="#8F2EEF"/>
<path d="M13 0H0V13H13V0Z" fill="#A54EFC"/>
<path d="M26 13H13V26H26V13Z" fill="#7B1CDB"/>
<path d="M26 0H13V13H26V0Z" fill="#8F2EEF"/>
<path fill-rule="evenodd" clip-rule="evenodd" d="M13 21.125H4.875V20.0722C4.875 15.5863 8.51408 11.9472 13 11.9472V21.125Z" fill="white"/>
<path fill-rule="evenodd" clip-rule="evenodd" d="M13 13C10.757 13 8.9375 11.1805 8.9375 8.9375C8.9375 6.69454 10.757 4.875 13 4.875V13Z" fill="white"/>
<path fill-rule="evenodd" clip-rule="evenodd" d="M21.125 21.125H13V11.9472C17.4859 11.9472 21.125 15.5863 21.125 20.0722V21.125Z" fill="white"/>
<path fill-rule="evenodd" clip-rule="evenodd" d="M13 13V4.875C15.243 4.875 17.0625 6.69454 17.0625 8.9375C17.0625 11.1805 15.243 13 13 13Z" fill="white"/>
</svg>
