<svg width="26" height="26" viewBox="0 0 26 26" fill="none" xmlns="http://www.w3.org/2000/svg">
<path d="M13 13H0V26H13V13Z" fill="#0980D3"/>
<path fill-rule="evenodd" clip-rule="evenodd" d="M6.552 13C2.912 13 0 10.088 0 6.552C0 2.912 2.912 0 6.448 0C10.088 0 12.896 2.912 12.896 6.448C13 10.088 10.088 13 6.552 13Z" fill="#00AFF0"/>
<path fill-rule="evenodd" clip-rule="evenodd" d="M19.552 26C15.912 26 13 23.088 13 19.552C13 15.912 15.912 13.104 19.448 13.104C23.088 13.104 25.896 16.016 25.896 19.552C26 23.088 23.088 26 19.552 26Z" fill="#1351B5"/>
<path d="M26 0H13V13H26V0Z" fill="#0980D3"/>
</svg>
