<svg width="26" height="26" viewBox="0 0 26 26" fill="none" xmlns="http://www.w3.org/2000/svg">
<rect x="1.12247" y="1" width="23.8775" height="24" rx="11.9388" stroke="black" stroke-width="2"/>
<path fill-rule="evenodd" clip-rule="evenodd" d="M12.9388 25C6.34933 25 1 19.6232 1 13C7.59995 13 12.9388 18.3768 12.9388 25Z" stroke="#3A3A3A" stroke-width="2"/>
<path fill-rule="evenodd" clip-rule="evenodd" d="M1 13C1 6.37676 6.34933 1 12.9388 1C12.9388 7.62324 7.59995 13 1 13Z" stroke="#575757" stroke-width="2"/>
<path fill-rule="evenodd" clip-rule="evenodd" d="M12.9388 25C12.9388 18.3768 18.2881 13 24.8775 13C24.8775 19.6232 19.5387 25 12.9388 25Z" stroke="#1D1D1D" stroke-width="2"/>
<path fill-rule="evenodd" clip-rule="evenodd" d="M24.8775 13C18.2881 13 12.9388 7.62324 12.9388 1C19.5387 1 24.8775 6.37676 24.8775 13Z" stroke="#3A3A3A" stroke-width="2"/>
</svg>
