<svg width="105" height="35" viewBox="0 0 105 35" fill="none" xmlns="http://www.w3.org/2000/svg">
<path d="M17.4531 17.5H0V35H17.4531V17.5Z" fill="#0980D3"/>
<path d="M17.4531 0H0V17.5H17.4531V0Z" fill="#00AFF0"/>
<path d="M34.9062 17.5H17.4531V35H34.9062V17.5Z" fill="#1351B5"/>
<path d="M34.9062 0H17.4531V17.5H34.9062V0Z" fill="#0980D3"/>
<path d="M26.1796 8.75H8.72656V26.25H26.1796V8.75Z" fill="#F1F2F2"/>
<path d="M17.4531 8.75H8.72656V17.5H17.4531V8.75Z" fill="white"/>
<path d="M26.1797 17.5H17.4531V26.25H26.1797V17.5Z" fill="#E5E7E8"/>
<path fill-rule="evenodd" clip-rule="evenodd" d="M26.1797 26.25H17.4531V35" fill="#D1D3D4"/>
<path d="M49.9665 19.6169H46.4478V2.25806H49.9665V11.1492L53.9075 6.91532H58.2708L53.4853 11.996L58.4116 19.4758H54.189L50.9518 14.6774L49.8258 15.8064V19.6169H49.9665Z" fill="white"/>
<path d="M71.0792 13.2661C71.0792 15.1008 70.5162 16.6532 69.2494 17.9234C67.9827 19.1936 66.4344 19.7581 64.4639 19.7581C62.4934 19.7581 60.9451 19.1936 59.6784 17.9234C58.4116 16.6532 57.8486 15.1008 57.8486 13.2661C57.8486 11.4315 58.4116 9.87904 59.6784 8.60888C60.9451 7.33872 62.4934 6.7742 64.4639 6.7742C66.4344 6.7742 67.9827 7.33872 69.2494 8.60888C70.3754 9.87904 71.0792 11.4315 71.0792 13.2661ZM61.2266 13.2661C61.2266 14.254 61.5081 15.1008 62.0711 15.8065C62.6342 16.5121 63.3379 16.7944 64.3232 16.7944C65.1677 16.7944 66.0122 16.5121 66.5752 15.8065C67.1382 15.1008 67.4197 14.254 67.4197 13.2661C67.4197 12.2782 67.1382 11.4315 66.5752 10.7258C66.0122 10.0202 65.3084 9.73791 64.3232 9.73791C63.4787 9.73791 62.6342 10.0202 62.0711 10.7258C61.6489 11.4315 61.2266 12.2782 61.2266 13.2661Z" fill="white"/>
<path d="M84.0284 12.8427V19.6169H80.5096V12.7016C80.5096 11.7137 80.3689 11.0081 80.0874 10.4435C79.8058 10.0202 79.2428 9.7379 78.6798 9.7379C77.9761 9.7379 77.4131 10.0202 76.8501 10.4435C76.2871 11.0081 76.0056 11.8548 76.0056 12.8427V19.6169H72.4868V6.91532H76.0056V8.32661C76.9908 7.19757 78.1168 6.63306 79.3836 6.63306C80.2281 6.63306 80.9319 6.91531 81.4949 7.3387C82.1986 7.76209 82.6209 8.32661 82.9024 9.03225C83.3246 8.32661 84.0284 7.62096 84.8729 7.19757C85.7174 6.77419 86.5619 6.63306 87.4064 6.63306C88.9546 6.63306 90.0806 7.05644 90.9251 7.90322C91.7696 8.74999 92.3326 10.0202 92.3326 11.7137V19.3347H88.8139V12.7016C88.8139 10.7258 88.1101 9.7379 86.7026 9.7379C85.9989 9.7379 85.4359 10.0202 84.8729 10.4435C84.3099 11.0081 84.0284 11.8548 84.0284 12.8427Z" fill="white"/>
<path d="M105 19.6169H101.763V18.0645C100.918 19.1936 99.7924 19.7581 98.3849 19.7581C97.1181 19.7581 95.9921 19.3347 95.0069 18.629C94.0216 17.9234 93.5994 16.7944 93.5994 15.5242C93.5994 14.254 94.0216 13.2661 95.0069 12.5605C95.9921 11.8548 97.2589 11.5726 98.8071 11.5726H101.481C101.481 10.1613 100.778 9.59678 99.3701 9.59678C98.8071 9.59678 98.1034 9.73791 97.3996 10.0202C96.6959 10.3024 96.1329 10.4436 95.7106 10.8669L94.1624 8.60888C95.8514 7.33872 97.6811 6.7742 99.7924 6.7742C101.341 6.7742 102.607 7.19759 103.593 7.90323C104.578 8.60888 105 9.87904 105 11.5726V19.6169ZM101.481 14.8186V14.1129H99.2294C97.8219 14.1129 97.1181 14.5363 97.1181 15.3831C97.1181 15.8065 97.2589 16.2298 97.6811 16.371C98.1034 16.5121 98.5256 16.7944 99.0886 16.7944C99.6516 16.7944 100.215 16.6532 100.778 16.2298C101.2 15.9476 101.481 15.3831 101.481 14.8186Z" fill="white"/>
<path d="M46.87 27.5202V30.7661H45.6033V22.4395H46.87V25.8266C47.0108 25.4032 47.2923 25.121 47.7145 24.9798C48.1368 24.8387 48.4183 24.6976 48.8405 24.6976C49.5443 24.6976 50.1073 24.8387 50.5295 25.2621C50.9518 25.6855 51.0925 26.25 51.0925 27.0968V30.7661H49.8258V27.5202C49.8258 26.3911 49.4035 25.8266 48.4183 25.8266C47.996 25.8266 47.5738 25.9677 47.2923 26.25C47.0108 26.5323 46.87 26.9556 46.87 27.5202Z" fill="#BBBDBF"/>
<path d="M58.4115 28.3669H53.7668C53.7668 28.7903 54.0483 29.2137 54.3298 29.3548C54.752 29.6371 55.1743 29.7782 55.5965 29.7782C56.3003 29.7782 56.8633 29.496 57.2855 29.0726L57.9893 29.9193C57.2855 30.625 56.5818 30.9072 55.4558 30.9072C54.6113 30.9072 53.9075 30.625 53.3445 30.0605C52.7815 29.496 52.5 28.7903 52.5 27.8024C52.5 26.8145 52.7815 26.1089 53.3445 25.5443C53.9075 24.9798 54.6113 24.6976 55.4558 24.6976C56.3003 24.6976 57.004 24.9798 57.567 25.4032C58.13 25.8266 58.4115 26.5322 58.4115 27.379V28.3669ZM53.7668 27.379H57.1448C57.1448 26.8145 57.004 26.5322 56.7225 26.25C56.441 25.9677 56.0188 25.8266 55.5965 25.8266C55.1743 25.8266 54.752 25.9677 54.3298 26.25C53.9075 26.5322 53.7668 26.8145 53.7668 27.379Z" fill="#BBBDBF"/>
<path d="M61.0858 30.7661H59.8191V22.4395H61.0858V30.7661Z" fill="#BBBDBF"/>
<path d="M66.012 24.6976C66.8565 24.6976 67.5603 24.9798 68.1233 25.5443C68.6863 26.1089 68.9678 26.8145 68.9678 27.8024C68.9678 28.7903 68.6863 29.496 68.1233 30.0605C67.5603 30.625 66.8565 30.9072 66.1528 30.9072C65.449 30.9072 64.7453 30.625 64.1823 29.9193V33.0242H62.9155V24.8387H64.1823V25.8266C64.6045 25.121 65.1675 24.6976 66.012 24.6976ZM64.0415 27.8024C64.0415 28.3669 64.1823 28.7903 64.6045 29.2137C64.886 29.6371 65.3083 29.7782 65.8713 29.7782C66.4343 29.7782 66.8565 29.6371 67.138 29.2137C67.5603 28.7903 67.701 28.3669 67.701 27.8024C67.701 27.2379 67.5603 26.8145 67.138 26.3911C66.7158 25.9677 66.2935 25.8266 65.8713 25.8266C65.3083 25.8266 64.886 25.9677 64.6045 26.3911C64.1823 26.6734 64.0415 27.2379 64.0415 27.8024Z" fill="#BBBDBF"/>
<path d="M70.7976 29.9194C70.2346 29.3549 69.9531 28.6492 69.9531 27.6613C69.9531 26.6734 70.2346 25.9678 70.7976 25.4032C71.3606 24.8387 72.0644 24.5565 72.9089 24.5565C73.7534 24.5565 74.3164 24.8387 74.8794 25.5444V22.2984H76.0054V30.625H74.7386V29.7782C74.3164 30.4839 73.6126 30.7661 72.7681 30.7661C72.0644 30.7661 71.3606 30.4839 70.7976 29.9194ZM71.2199 27.8024C71.2199 28.367 71.3606 28.7903 71.7829 29.2137C72.2051 29.6371 72.6274 29.7782 73.0496 29.7782C73.4719 29.7782 73.8941 29.6371 74.3164 29.2137C74.5979 28.7903 74.8794 28.367 74.8794 27.8024C74.8794 27.2379 74.7386 26.8145 74.3164 26.3911C74.0349 25.9678 73.6126 25.8266 73.0496 25.8266C72.4866 25.8266 72.0644 25.9678 71.7829 26.3911C71.3606 26.6734 71.2199 27.2379 71.2199 27.8024Z" fill="#BBBDBF"/>
<path d="M83.4652 28.3669H78.8205C78.8205 28.7903 79.102 29.2137 79.3835 29.3548C79.8057 29.6371 80.228 29.7782 80.6502 29.7782C81.354 29.7782 81.917 29.496 82.3392 29.0726L83.043 29.9193C82.3392 30.625 81.6355 30.9072 80.5095 30.9072C79.665 30.9072 78.9612 30.625 78.3982 30.0605C77.8352 29.496 77.5537 28.7903 77.5537 27.8024C77.5537 26.8145 77.8352 26.1089 78.3982 25.5443C78.9612 24.9798 79.665 24.6976 80.5095 24.6976C81.354 24.6976 82.0577 24.9798 82.6207 25.4032C83.1837 25.8266 83.4652 26.5322 83.4652 27.379V28.3669ZM78.6797 27.379H82.0577C82.0577 26.8145 81.917 26.5322 81.6355 26.25C81.354 25.9677 80.9317 25.8266 80.5095 25.8266C80.0872 25.8266 79.665 25.9677 79.2427 26.25C78.9612 26.5322 78.6797 26.8145 78.6797 27.379Z" fill="#BBBDBF"/>
<path d="M89.0953 28.9314C89.0953 29.496 88.9546 29.9193 88.5323 30.3427C88.1101 30.625 87.5471 30.9072 86.9841 30.9072C86.5618 30.9072 86.1396 30.7661 85.5766 30.625C85.0136 30.4839 84.7321 30.2016 84.3098 29.9193L84.8728 28.9314C85.5766 29.496 86.2803 29.7782 86.8433 29.7782C87.1248 29.7782 87.4063 29.7782 87.5471 29.6371C87.6878 29.496 87.8286 29.3548 87.8286 29.0726C87.8286 28.7903 87.4063 28.5081 86.7026 28.2258H86.5618C85.2951 27.9435 84.7321 27.379 84.7321 26.5322C84.7321 25.9677 85.0136 25.5443 85.4358 25.2621C85.8581 24.9798 86.4211 24.6976 87.1248 24.6976C87.8286 24.6976 88.3916 24.8387 89.0953 25.2621L88.6731 26.25C88.2508 25.9677 87.6878 25.8266 87.1248 25.8266C86.8433 25.8266 86.5618 25.8266 86.4211 25.9677C86.2803 26.1089 85.8581 26.1089 85.8581 26.3911C85.8581 26.5322 85.9988 26.6734 86.1396 26.8145C86.2803 26.8145 86.4211 26.9556 86.7026 26.9556C86.9841 26.9556 87.1248 27.0968 87.4063 27.0968C87.5471 27.0968 87.8286 27.2379 87.9693 27.2379C88.1101 27.379 88.3916 27.379 88.5323 27.5202C88.8138 27.9435 89.0953 28.3669 89.0953 28.9314Z" fill="#BBBDBF"/>
<path d="M91.6288 30.7661H90.3621V22.4395H91.6288V27.379L94.0216 24.8387H95.7106L93.4586 27.2379L95.8513 30.9073H94.3031L92.4733 28.2258L91.6288 29.2137V30.7661Z" fill="#BBBDBF"/>
</svg>
