<svg width="75" height="25" viewBox="0 0 75 25" fill="none" xmlns="http://www.w3.org/2000/svg">
<g clip-path="url(#clip0)">
<path d="M12.4 12.4H0V24.8H12.4V12.4Z" fill="#0980D3"/>
<path d="M12.4 0H0V12.4H12.4V0Z" fill="#00AFF0"/>
<path d="M24.8 12.4H12.4V24.8H24.8V12.4Z" fill="#1351B5"/>
<path d="M24.8 0H12.4V12.4H24.8V0Z" fill="#0980D3"/>
<path d="M18.6 6.20001H6.20001V18.6H18.6V6.20001Z" fill="#F1F2F2"/>
<path d="M12.4 6.20001H6.20001V12.4H12.4V6.20001Z" fill="white"/>
<path d="M18.6 12.4H12.4V18.6H18.6V12.4Z" fill="#E5E7E8"/>
<path fill-rule="evenodd" clip-rule="evenodd" d="M18.6 18.6H12.4V24.8" fill="#D1D3D4"/>
<path d="M35.5 13.9H33V1.60001H35.5V7.90001L38.3 4.90001H41.4L38 8.50001L41.5 13.8H38.5L36.2 10.4L35.4 11.2V13.9H35.5Z" fill="black"/>
<path d="M50.5 9.40002C50.5 10.7 50.1 11.8 49.2 12.7C48.3 13.6 47.2 14 45.8 14C44.4 14 43.3 13.6 42.4 12.7C41.5 11.8 41.1 10.7 41.1 9.40002C41.1 8.10002 41.5 7.00002 42.4 6.10002C43.3 5.20002 44.4 4.80002 45.8 4.80002C47.2 4.80002 48.3 5.20002 49.2 6.10002C50 7.00002 50.5 8.10002 50.5 9.40002ZM43.5 9.40002C43.5 10.1 43.7 10.7 44.1 11.2C44.5 11.7 45 11.9 45.7 11.9C46.3 11.9 46.9 11.7 47.3 11.2C47.7 10.7 47.9 10.1 47.9 9.40002C47.9 8.70002 47.7 8.10002 47.3 7.60002C46.9 7.10002 46.4 6.90002 45.7 6.90002C45.1 6.90002 44.5 7.10002 44.1 7.60002C43.8 8.10002 43.5 8.70002 43.5 9.40002Z" fill="black"/>
<path d="M59.7 9.10001V13.9H57.2V9.00001C57.2 8.30001 57.1 7.80001 56.9 7.40001C56.7 7.10001 56.3 6.90001 55.9 6.90001C55.4 6.90001 55 7.10001 54.6 7.40001C54.2 7.80001 54 8.40001 54 9.10001V13.9H51.5V4.90001H54V5.90001C54.7 5.10001 55.5 4.70001 56.4 4.70001C57 4.70001 57.5 4.90001 57.9 5.20001C58.4 5.50001 58.7 5.90001 58.9 6.40001C59.2 5.90001 59.7 5.40001 60.3 5.10001C60.9 4.80001 61.5 4.70001 62.1 4.70001C63.2 4.70001 64 5.00001 64.6 5.60001C65.2 6.20001 65.6 7.10001 65.6 8.30001V13.7H63.1V9.00001C63.1 7.60001 62.6 6.90001 61.6 6.90001C61.1 6.90001 60.7 7.10001 60.3 7.40001C59.9 7.80001 59.7 8.40001 59.7 9.10001Z" fill="black"/>
<path d="M74.6 13.9H72.3V12.8C71.7 13.6 70.9 14 69.9 14C69 14 68.2 13.7 67.5 13.2C66.8 12.7 66.5 11.9 66.5 11C66.5 10.1 66.8 9.40002 67.5 8.90002C68.2 8.40002 69.1 8.20002 70.2 8.20002H72.1C72.1 7.20002 71.6 6.80002 70.6 6.80002C70.2 6.80002 69.7 6.90002 69.2 7.10002C68.7 7.30002 68.3 7.40002 68 7.70002L66.9 6.10002C68.1 5.20002 69.4 4.80002 70.9 4.80002C72 4.80002 72.9 5.10002 73.6 5.60002C74.3 6.10002 74.6 7.00002 74.6 8.20002V13.9ZM72.1 10.5V10H70.5C69.5 10 69 10.3 69 10.9C69 11.2 69.1 11.5 69.4 11.6C69.7 11.7 70 11.9 70.4 11.9C70.8 11.9 71.2 11.8 71.6 11.5C71.9 11.3 72.1 10.9 72.1 10.5Z" fill="black"/>
<path d="M33.3 19.5V21.8H32.4V15.9H33.3V18.3C33.4 18 33.6 17.8 33.9 17.7C34.2 17.6 34.4 17.5 34.7 17.5C35.2 17.5 35.6 17.6 35.9 17.9C36.2 18.2 36.3 18.6 36.3 19.2V21.8H35.4V19.5C35.4 18.7 35.1 18.3 34.4 18.3C34.1 18.3 33.8 18.4 33.6 18.6C33.4 18.8 33.3 19.1 33.3 19.5Z" fill="#424242"/>
<path d="M41.5 20.1H38.2001C38.2001 20.4 38.4 20.7 38.6 20.8C38.9 21 39.2 21.1 39.5 21.1C40 21.1 40.4001 20.9 40.7001 20.6L41.2001 21.2C40.7001 21.7 40.2001 21.9 39.4001 21.9C38.8001 21.9 38.3001 21.7 37.9001 21.3C37.5001 20.9 37.3 20.4 37.3 19.7C37.3 19 37.5001 18.5 37.9001 18.1C38.3001 17.7 38.8001 17.5 39.4001 17.5C40.0001 17.5 40.5001 17.7 40.9001 18C41.3001 18.3 41.5 18.8 41.5 19.4V20.1ZM38.2001 19.4H40.6C40.6 19 40.5 18.8 40.3 18.6C40.1 18.4 39.8 18.3 39.5 18.3C39.2 18.3 38.9 18.4 38.6 18.6C38.3 18.8 38.2001 19 38.2001 19.4Z" fill="#424242"/>
<path d="M43.4 21.8H42.5V15.9H43.4V21.8Z" fill="#424242"/>
<path d="M46.9 17.5C47.5 17.5 48 17.7 48.4 18.1C48.8 18.5 49 19 49 19.7C49 20.4 48.8 20.9 48.4 21.3C48 21.7 47.5 21.9 47 21.9C46.5 21.9 46 21.7 45.6 21.2V23.4H44.7V17.6H45.6V18.3C45.9 17.8 46.3 17.5 46.9 17.5ZM45.5 19.7C45.5 20.1 45.6 20.4 45.9 20.7C46.1 21 46.4 21.1 46.8 21.1C47.2 21.1 47.5 21 47.7 20.7C48 20.4 48.1 20.1 48.1 19.7C48.1 19.3 48 19 47.7 18.7C47.4 18.4 47.1 18.3 46.8 18.3C46.4 18.3 46.1 18.4 45.9 18.7C45.6 18.9 45.5 19.3 45.5 19.7Z" fill="#424242"/>
<path d="M50.3 21.2C49.9 20.8 49.7 20.3 49.7 19.6C49.7 18.9 49.9 18.4 50.3 18C50.7 17.6 51.2 17.4 51.8 17.4C52.4 17.4 52.8 17.6 53.2 18.1V15.8H54V21.7H53.1V21.1C52.8 21.6 52.3 21.8 51.7 21.8C51.2 21.8 50.7 21.6 50.3 21.2ZM50.6 19.7C50.6 20.1 50.7 20.4 51 20.7C51.3 21 51.6 21.1 51.9 21.1C52.2 21.1 52.5 21 52.8 20.7C53 20.4 53.2 20.1 53.2 19.7C53.2 19.3 53.1 19 52.8 18.7C52.6 18.4 52.3 18.3 51.9 18.3C51.5 18.3 51.2 18.4 51 18.7C50.7 18.9 50.6 19.3 50.6 19.7Z" fill="#424242"/>
<path d="M59.3 20.1H56C56 20.4 56.2 20.7 56.4 20.8C56.7 21 57 21.1 57.3 21.1C57.8 21.1 58.2 20.9 58.5 20.6L59 21.2C58.5 21.7 58 21.9 57.2 21.9C56.6 21.9 56.1 21.7 55.7 21.3C55.3 20.9 55.1 20.4 55.1 19.7C55.1 19 55.3 18.5 55.7 18.1C56.1 17.7 56.6 17.5 57.2 17.5C57.8 17.5 58.3 17.7 58.7 18C59.1 18.3 59.3 18.8 59.3 19.4V20.1ZM55.9 19.4H58.3C58.3 19 58.2 18.8 58 18.6C57.8 18.4 57.5 18.3 57.2 18.3C56.9 18.3 56.6 18.4 56.3 18.6C56.1 18.8 55.9 19 55.9 19.4Z" fill="#424242"/>
<path d="M63.3 20.5C63.3 20.9 63.2 21.2 62.9 21.5C62.6 21.7 62.2 21.9 61.8 21.9C61.5 21.9 61.2 21.8 60.8 21.7C60.4 21.6 60.2 21.4 59.9 21.2L60.3 20.5C60.8 20.9 61.3 21.1 61.7 21.1C61.9 21.1 62.1 21.1 62.2 21C62.3 20.9 62.4 20.8 62.4 20.6C62.4 20.4 62.1 20.2 61.6 20H61.5C60.6 19.8 60.2 19.4 60.2 18.8C60.2 18.4 60.4 18.1 60.7 17.9C61 17.7 61.4 17.5 61.9 17.5C62.4 17.5 62.8 17.6 63.3 17.9L63 18.6C62.7 18.4 62.3 18.3 61.9 18.3C61.7 18.3 61.5 18.3 61.4 18.4C61.3 18.5 61 18.5 61 18.7C61 18.8 61.1 18.9 61.2 19C61.3 19 61.4 19.1 61.6 19.1C61.8 19.1 61.9 19.2 62.1 19.2C62.2 19.2 62.4 19.3 62.5 19.3C62.6 19.4 62.8 19.4 62.9 19.5C63.1 19.8 63.3 20.1 63.3 20.5Z" fill="#424242"/>
<path d="M65.1 21.8H64.2V15.9H65.1V19.4L66.8 17.6H68L66.4 19.3L68.1 21.9H67L65.7 20L65.1 20.7V21.8Z" fill="#424242"/>
</g>
<defs>
<clipPath id="clip0">
<rect width="74.6" height="24.8" fill="white"/>
</clipPath>
</defs>
</svg>
