<svg width="60" height="60" viewBox="0 0 60 60" fill="none" xmlns="http://www.w3.org/2000/svg">
<g filter="url(#filter0_d)">
<path d="M29.9513 25H10V45H29.9513V25Z" fill="#0980D3"/>
<path fill-rule="evenodd" clip-rule="evenodd" d="M20.0243 25C14.4769 25 10 20.5122 10 15.0488C10 9.48781 14.4769 5 20.0243 5C25.5718 5 30.0487 9.48781 30.0487 15.0488C29.9513 20.5122 25.4745 25 20.0243 25Z" fill="#00AFF0"/>
<path fill-rule="evenodd" clip-rule="evenodd" d="M39.9757 45C34.4282 45 29.9513 40.5122 29.9513 34.9512C29.9513 29.3902 34.4282 24.9024 39.9757 24.9024C45.5231 24.9024 50 29.3902 50 34.9512C49.9027 40.5122 45.4258 45 39.9757 45Z" fill="#1351B5"/>
<path d="M49.9027 5H29.9513V25H49.9027V5Z" fill="#0980D3"/>
</g>
<defs>
<filter id="filter0_d" x="0" y="0" width="60" height="60" filterUnits="userSpaceOnUse" color-interpolation-filters="sRGB">
<feFlood flood-opacity="0" result="BackgroundImageFix"/>
<feColorMatrix in="SourceAlpha" type="matrix" values="0 0 0 0 0 0 0 0 0 0 0 0 0 0 0 0 0 0 127 0"/>
<feOffset dy="5"/>
<feGaussianBlur stdDeviation="5"/>
<feColorMatrix type="matrix" values="0 0 0 0 0 0 0 0 0 0.686275 0 0 0 0 0.941176 0 0 0 0.25 0"/>
<feBlend mode="normal" in2="BackgroundImageFix" result="effect1_dropShadow"/>
<feBlend mode="normal" in="SourceGraphic" in2="effect1_dropShadow" result="shape"/>
</filter>
</defs>
</svg>
