<svg width="1280" height="720" viewBox="0 0 1280 720" fill="none" xmlns="http://www.w3.org/2000/svg">
<rect width="1280" height="720" fill="#000021"/>
<g opacity="0.1" clip-path="url(#clip0)">
<path d="M1010.6 681.3H972.3V719.6H1010.6V681.3Z" stroke="white" stroke-width="2" stroke-miterlimit="10" stroke-linecap="round" stroke-linejoin="round"/>
<path fill-rule="evenodd" clip-rule="evenodd" d="M991.4 681.3C980.8 681.3 972.2 672.7 972.2 662.1C972.2 651.5 980.8 642.9 991.4 642.9C1002 642.9 1010.6 651.5 1010.6 662.1C1010.6 672.7 1002 681.3 991.4 681.3Z" stroke="white" stroke-width="2" stroke-miterlimit="10" stroke-linecap="round" stroke-linejoin="round"/>
<path fill-rule="evenodd" clip-rule="evenodd" d="M1029.7 719.6C1019.1 719.6 1010.5 711 1010.5 700.4C1010.5 689.8 1019.1 681.2 1029.7 681.2C1040.3 681.2 1048.9 689.8 1048.9 700.4C1048.9 711 1040.3 719.6 1029.7 719.6Z" stroke="white" stroke-width="2" stroke-miterlimit="10" stroke-linecap="round" stroke-linejoin="round"/>
<path d="M1048.9 642.9H1010.6V681.2H1048.9V642.9Z" stroke="white" stroke-width="2" stroke-miterlimit="10" stroke-linecap="round" stroke-linejoin="round"/>
<path d="M1163.8 719.6H1125.5V757.9H1163.8V719.6Z" stroke="white" stroke-width="2" stroke-miterlimit="10" stroke-linecap="round" stroke-linejoin="round"/>
<path fill-rule="evenodd" clip-rule="evenodd" d="M1144.7 719.6C1134.1 719.6 1125.5 711 1125.5 700.4C1125.5 689.8 1134.1 681.2 1144.7 681.2C1155.3 681.2 1163.9 689.8 1163.9 700.4C1163.8 711 1155.2 719.6 1144.7 719.6Z" stroke="white" stroke-width="2" stroke-miterlimit="10" stroke-linecap="round" stroke-linejoin="round"/>
<path fill-rule="evenodd" clip-rule="evenodd" d="M1183 757.9C1172.4 757.9 1163.8 749.3 1163.8 738.7C1163.8 728.1 1172.4 719.5 1183 719.5C1193.6 719.5 1202.2 728.1 1202.2 738.7C1202.1 749.3 1193.6 757.9 1183 757.9Z" stroke="white" stroke-width="2" stroke-miterlimit="10" stroke-linecap="round" stroke-linejoin="round"/>
<path d="M1202.1 681.3H1163.8V719.6H1202.1V681.3Z" stroke="white" stroke-width="2" stroke-miterlimit="10" stroke-linecap="round" stroke-linejoin="round"/>
<path d="M1125.53 642.933V604.633H1087.23V642.933H1125.53Z" stroke="white" stroke-width="2" stroke-miterlimit="10" stroke-linecap="round" stroke-linejoin="round"/>
<path fill-rule="evenodd" clip-rule="evenodd" d="M1125.5 623.8C1125.5 613.2 1134.1 604.6 1144.7 604.6C1155.3 604.6 1163.9 613.2 1163.9 623.8C1163.9 634.4 1155.3 643 1144.7 643C1134.1 642.9 1125.5 634.4 1125.5 623.8Z" stroke="white" stroke-width="2" stroke-miterlimit="10" stroke-linecap="round" stroke-linejoin="round"/>
<path fill-rule="evenodd" clip-rule="evenodd" d="M1087.2 662.1C1087.2 651.5 1095.8 642.9 1106.4 642.9C1117 642.9 1125.6 651.5 1125.6 662.1C1125.6 672.7 1117 681.3 1106.4 681.3C1095.8 681.3 1087.2 672.7 1087.2 662.1Z" stroke="white" stroke-width="2" stroke-miterlimit="10" stroke-linecap="round" stroke-linejoin="round"/>
<path d="M1163.86 681.233V642.933H1125.56V681.233H1163.86Z" stroke="white" stroke-width="2" stroke-miterlimit="10" stroke-linecap="round" stroke-linejoin="round"/>
<path d="M857.3 681.3H819V719.6H857.3V681.3Z" stroke="white" stroke-width="2" stroke-miterlimit="10" stroke-linecap="round" stroke-linejoin="round"/>
<path fill-rule="evenodd" clip-rule="evenodd" d="M857.3 642.9V681.3H819L857.3 642.9Z" stroke="white" stroke-width="2" stroke-miterlimit="10" stroke-linecap="round" stroke-linejoin="round"/>
<path d="M895.6 681.3H857.3V719.6H895.6V681.3Z" stroke="white" stroke-width="2" stroke-miterlimit="10" stroke-linecap="round" stroke-linejoin="round"/>
<path fill-rule="evenodd" clip-rule="evenodd" d="M895.6 681.3H857.3V642.9L895.6 681.3Z" stroke="white" stroke-width="2" stroke-miterlimit="10" stroke-linecap="round" stroke-linejoin="round"/>
<path d="M1125.5 566.3H1087.2V604.6H1125.5V566.3Z" stroke="white" stroke-width="2" stroke-miterlimit="10" stroke-linecap="round" stroke-linejoin="round"/>
<path fill-rule="evenodd" clip-rule="evenodd" d="M1125.5 528V566.3H1087.2L1125.5 528Z" stroke="white" stroke-width="2" stroke-miterlimit="10" stroke-linecap="round" stroke-linejoin="round"/>
<path d="M1163.8 566.3H1125.5V604.6H1163.8V566.3Z" stroke="white" stroke-width="2" stroke-miterlimit="10" stroke-linecap="round" stroke-linejoin="round"/>
<path fill-rule="evenodd" clip-rule="evenodd" d="M1163.8 566.3H1125.5V528L1163.8 566.3Z" stroke="white" stroke-width="2" stroke-miterlimit="10" stroke-linecap="round" stroke-linejoin="round"/>
<path d="M1202.1 642.9H1163.8V681.2H1202.1V642.9Z" stroke="white" stroke-width="2" stroke-miterlimit="10" stroke-linecap="round" stroke-linejoin="round"/>
<path fill-rule="evenodd" clip-rule="evenodd" d="M1202.1 604.6V642.9H1163.8L1202.1 604.6Z" stroke="white" stroke-width="2" stroke-miterlimit="10" stroke-linecap="round" stroke-linejoin="round"/>
<path d="M1240.4 642.9H1202.1V681.2H1240.4V642.9Z" stroke="white" stroke-width="2" stroke-miterlimit="10" stroke-linecap="round" stroke-linejoin="round"/>
<path fill-rule="evenodd" clip-rule="evenodd" d="M1240.4 642.9H1202.1V604.6L1240.4 642.9Z" stroke="white" stroke-width="2" stroke-miterlimit="10" stroke-linecap="round" stroke-linejoin="round"/>
<path fill-rule="evenodd" clip-rule="evenodd" d="M1010.6 719.6V757.9H972.3L1010.6 719.6Z" stroke="white" stroke-width="2" stroke-miterlimit="10" stroke-linecap="round" stroke-linejoin="round"/>
<path fill-rule="evenodd" clip-rule="evenodd" d="M1048.9 757.9H1010.6V719.6L1048.9 757.9Z" stroke="white" stroke-width="2" stroke-miterlimit="10" stroke-linecap="round" stroke-linejoin="round"/>
<path fill-rule="evenodd" clip-rule="evenodd" d="M895.6 681.3V643C916.8 643 933.9 660.2 933.9 681.3H895.6Z" stroke="white" stroke-width="2" stroke-miterlimit="10" stroke-linecap="round" stroke-linejoin="round"/>
<path fill-rule="evenodd" clip-rule="evenodd" d="M933.9 681.3V643C955.1 643 972.2 660.2 972.2 681.3H933.9Z" stroke="white" stroke-width="2" stroke-miterlimit="10" stroke-linecap="round" stroke-linejoin="round"/>
<path fill-rule="evenodd" clip-rule="evenodd" d="M895.6 719.6V681.3C916.8 681.3 933.9 698.5 933.9 719.6H895.6V719.6Z" stroke="white" stroke-width="2" stroke-miterlimit="10" stroke-linecap="round" stroke-linejoin="round"/>
<path fill-rule="evenodd" clip-rule="evenodd" d="M933.9 719.6V681.3C955.1 681.3 972.2 698.5 972.2 719.6H933.9V719.6Z" stroke="white" stroke-width="2" stroke-miterlimit="10" stroke-linecap="round" stroke-linejoin="round"/>
<path fill-rule="evenodd" clip-rule="evenodd" d="M1163.8 566.3V528C1185 528 1202.1 545.2 1202.1 566.3H1163.8Z" stroke="white" stroke-width="2" stroke-miterlimit="10" stroke-linecap="round" stroke-linejoin="round"/>
<path fill-rule="evenodd" clip-rule="evenodd" d="M1202.1 566.3V528C1223.3 528 1240.4 545.2 1240.4 566.3H1202.1Z" stroke="white" stroke-width="2" stroke-miterlimit="10" stroke-linecap="round" stroke-linejoin="round"/>
<path fill-rule="evenodd" clip-rule="evenodd" d="M1163.8 604.6V566.3C1185 566.3 1202.1 583.5 1202.1 604.6H1163.8Z" stroke="white" stroke-width="2" stroke-miterlimit="10" stroke-linecap="round" stroke-linejoin="round"/>
<path fill-rule="evenodd" clip-rule="evenodd" d="M1202.1 604.6V566.3C1223.3 566.3 1240.4 583.5 1240.4 604.6H1202.1Z" stroke="white" stroke-width="2" stroke-miterlimit="10" stroke-linecap="round" stroke-linejoin="round"/>
<path fill-rule="evenodd" clip-rule="evenodd" d="M1048.9 757.9V719.6C1070.1 719.6 1087.2 736.8 1087.2 757.9H1048.9V757.9Z" stroke="white" stroke-width="2" stroke-miterlimit="10" stroke-linecap="round" stroke-linejoin="round"/>
<path fill-rule="evenodd" clip-rule="evenodd" d="M1087.2 757.9V719.6C1108.4 719.6 1125.5 736.8 1125.5 757.9H1087.2V757.9Z" stroke="white" stroke-width="2" stroke-miterlimit="10" stroke-linecap="round" stroke-linejoin="round"/>
<path fill-rule="evenodd" clip-rule="evenodd" d="M1202.1 719.6V681.3C1223.3 681.3 1240.4 698.5 1240.4 719.6H1202.1V719.6Z" stroke="white" stroke-width="2" stroke-miterlimit="10" stroke-linecap="round" stroke-linejoin="round"/>
<path fill-rule="evenodd" clip-rule="evenodd" d="M1240.4 719.6V681.3C1261.6 681.3 1278.7 698.5 1278.7 719.6H1240.4V719.6Z" stroke="white" stroke-width="2" stroke-miterlimit="10" stroke-linecap="round" stroke-linejoin="round"/>
<path fill-rule="evenodd" clip-rule="evenodd" d="M1202.1 757.9V719.6C1223.3 719.6 1240.4 736.8 1240.4 757.9H1202.1V757.9Z" stroke="white" stroke-width="2" stroke-miterlimit="10" stroke-linecap="round" stroke-linejoin="round"/>
<path fill-rule="evenodd" clip-rule="evenodd" d="M1240.4 757.9V719.6C1261.6 719.6 1278.7 736.8 1278.7 757.9H1240.4V757.9Z" stroke="white" stroke-width="2" stroke-miterlimit="10" stroke-linecap="round" stroke-linejoin="round"/>
<path fill-rule="evenodd" clip-rule="evenodd" d="M1010.6 604.6V566.3C1031.8 566.3 1048.9 583.5 1048.9 604.6H1010.6Z" stroke="white" stroke-width="2" stroke-miterlimit="10" stroke-linecap="round" stroke-linejoin="round"/>
<path fill-rule="evenodd" clip-rule="evenodd" d="M1048.9 604.6V566.3C1070.1 566.3 1087.2 583.5 1087.2 604.6H1048.9Z" stroke="white" stroke-width="2" stroke-miterlimit="10" stroke-linecap="round" stroke-linejoin="round"/>
<path fill-rule="evenodd" clip-rule="evenodd" d="M1010.6 642.9V604.6C1031.8 604.6 1048.9 621.8 1048.9 642.9H1010.6V642.9Z" stroke="white" stroke-width="2" stroke-miterlimit="10" stroke-linecap="round" stroke-linejoin="round"/>
<path fill-rule="evenodd" clip-rule="evenodd" d="M1048.9 642.9V604.6C1070.1 604.6 1087.2 621.8 1087.2 642.9H1048.9V642.9Z" stroke="white" stroke-width="2" stroke-miterlimit="10" stroke-linecap="round" stroke-linejoin="round"/>
<path fill-rule="evenodd" clip-rule="evenodd" d="M1087.2 719.6C1066 719.6 1048.9 702.4 1048.9 681.3H1087.2V719.6Z" stroke="white" stroke-width="2" stroke-miterlimit="10" stroke-linecap="round" stroke-linejoin="round"/>
<path fill-rule="evenodd" clip-rule="evenodd" d="M1087.2 681.3H1048.9C1048.9 660.1 1066.1 643 1087.2 643V681.3Z" stroke="white" stroke-width="2" stroke-miterlimit="10" stroke-linecap="round" stroke-linejoin="round"/>
<path fill-rule="evenodd" clip-rule="evenodd" d="M1087.2 719.6V681.3H1125.5C1125.5 702.4 1108.4 719.6 1087.2 719.6Z" stroke="white" stroke-width="2" stroke-miterlimit="10" stroke-linecap="round" stroke-linejoin="round"/>
</g>
<g opacity="0.1" clip-path="url(#clip1)">
<path d="M76.8 680.6H38.5V718.9H76.8V680.6Z" stroke="white" stroke-width="2" stroke-miterlimit="10" stroke-linecap="round" stroke-linejoin="round"/>
<path fill-rule="evenodd" clip-rule="evenodd" d="M57.7 680.6C47.1 680.6 38.5 672 38.5 661.4C38.5 650.8 47.1 642.2 57.7 642.2C68.3 642.2 76.9 650.8 76.9 661.4C76.8 672 68.2 680.6 57.7 680.6Z" stroke="white" stroke-width="2" stroke-miterlimit="10" stroke-linecap="round" stroke-linejoin="round"/>
<path fill-rule="evenodd" clip-rule="evenodd" d="M96.0001 718.9C85.4001 718.9 76.8 710.3 76.8 699.7C76.8 689.1 85.4001 680.5 96.0001 680.5C106.6 680.5 115.2 689.1 115.2 699.7C115.1 710.3 106.6 718.9 96.0001 718.9Z" stroke="white" stroke-width="2" stroke-miterlimit="10" stroke-linecap="round" stroke-linejoin="round"/>
<path d="M115.1 642.3H76.8V680.6H115.1V642.3Z" stroke="white" stroke-width="2" stroke-miterlimit="10" stroke-linecap="round" stroke-linejoin="round"/>
<path d="M38.5347 603.933L38.5347 565.633H0.234665L0.234665 603.933H38.5347Z" stroke="white" stroke-width="2" stroke-miterlimit="10" stroke-linecap="round" stroke-linejoin="round"/>
<path fill-rule="evenodd" clip-rule="evenodd" d="M38.5 584.8C38.5 574.2 47.1 565.6 57.7 565.6C68.3 565.6 76.9 574.2 76.9 584.8C76.9 595.4 68.3 604 57.7 604C47.1 603.9 38.5 595.4 38.5 584.8Z" stroke="white" stroke-width="2" stroke-miterlimit="10" stroke-linecap="round" stroke-linejoin="round"/>
<path fill-rule="evenodd" clip-rule="evenodd" d="M0.199951 623.1C0.199951 612.5 8.79993 603.9 19.3999 603.9C29.9999 603.9 38.5999 612.5 38.5999 623.1C38.5999 633.7 29.9999 642.3 19.3999 642.3C8.79993 642.3 0.199951 633.7 0.199951 623.1Z" stroke="white" stroke-width="2" stroke-miterlimit="10" stroke-linecap="round" stroke-linejoin="round"/>
<path d="M76.8616 642.233V603.933H38.5616L38.5616 642.233H76.8616Z" stroke="white" stroke-width="2" stroke-miterlimit="10" stroke-linecap="round" stroke-linejoin="round"/>
<path d="M38.4999 527.3H0.199951V565.6H38.4999V527.3Z" stroke="white" stroke-width="2" stroke-miterlimit="10" stroke-linecap="round" stroke-linejoin="round"/>
<path fill-rule="evenodd" clip-rule="evenodd" d="M38.4999 489V527.3H0.199951L38.4999 489Z" stroke="white" stroke-width="2" stroke-miterlimit="10" stroke-linecap="round" stroke-linejoin="round"/>
<path d="M76.8 527.3H38.5V565.6H76.8V527.3Z" stroke="white" stroke-width="2" stroke-miterlimit="10" stroke-linecap="round" stroke-linejoin="round"/>
<path fill-rule="evenodd" clip-rule="evenodd" d="M76.8 527.3H38.5V489L76.8 527.3Z" stroke="white" stroke-width="2" stroke-miterlimit="10" stroke-linecap="round" stroke-linejoin="round"/>
<path d="M115.1 603.9H76.8V642.2H115.1V603.9Z" stroke="white" stroke-width="2" stroke-miterlimit="10" stroke-linecap="round" stroke-linejoin="round"/>
<path fill-rule="evenodd" clip-rule="evenodd" d="M115.1 565.6V603.9H76.8L115.1 565.6Z" stroke="white" stroke-width="2" stroke-miterlimit="10" stroke-linecap="round" stroke-linejoin="round"/>
<path d="M153.4 603.9H115.1V642.2H153.4V603.9Z" stroke="white" stroke-width="2" stroke-miterlimit="10" stroke-linecap="round" stroke-linejoin="round"/>
<path fill-rule="evenodd" clip-rule="evenodd" d="M153.4 603.9H115.1V565.6L153.4 603.9Z" stroke="white" stroke-width="2" stroke-miterlimit="10" stroke-linecap="round" stroke-linejoin="round"/>
<path fill-rule="evenodd" clip-rule="evenodd" d="M153.4 718.9V757.2H115.1L153.4 718.9Z" stroke="white" stroke-width="2" stroke-miterlimit="10" stroke-linecap="round" stroke-linejoin="round"/>
<path fill-rule="evenodd" clip-rule="evenodd" d="M191.8 757.2H153.4V718.9L191.8 757.2Z" stroke="white" stroke-width="2" stroke-miterlimit="10" stroke-linecap="round" stroke-linejoin="round"/>
<path fill-rule="evenodd" clip-rule="evenodd" d="M76.8 527.3V489C98 489 115.1 506.2 115.1 527.3H76.8Z" stroke="white" stroke-width="2" stroke-miterlimit="10" stroke-linecap="round" stroke-linejoin="round"/>
<path fill-rule="evenodd" clip-rule="evenodd" d="M115.1 527.3V489C136.3 489 153.4 506.2 153.4 527.3H115.1Z" stroke="white" stroke-width="2" stroke-miterlimit="10" stroke-linecap="round" stroke-linejoin="round"/>
<path fill-rule="evenodd" clip-rule="evenodd" d="M76.8 565.6V527.3C98 527.3 115.1 544.5 115.1 565.6H76.8Z" stroke="white" stroke-width="2" stroke-miterlimit="10" stroke-linecap="round" stroke-linejoin="round"/>
<path fill-rule="evenodd" clip-rule="evenodd" d="M115.1 565.6V527.3C136.3 527.3 153.4 544.5 153.4 565.6H115.1Z" stroke="white" stroke-width="2" stroke-miterlimit="10" stroke-linecap="round" stroke-linejoin="round"/>
<path fill-rule="evenodd" clip-rule="evenodd" d="M-38.1001 718.9V680.6C-16.9001 680.6 0.199921 697.8 0.199921 718.9H-38.1001V718.9Z" stroke="white" stroke-width="2" stroke-miterlimit="10" stroke-linecap="round" stroke-linejoin="round"/>
<path fill-rule="evenodd" clip-rule="evenodd" d="M0.199951 718.9V680.6C21.4 680.6 38.4999 697.8 38.4999 718.9H0.199951V718.9Z" stroke="white" stroke-width="2" stroke-miterlimit="10" stroke-linecap="round" stroke-linejoin="round"/>
<path fill-rule="evenodd" clip-rule="evenodd" d="M-38.1001 757.2V718.9C-16.9001 718.9 0.199921 736.1 0.199921 757.2H-38.1001Z" stroke="white" stroke-width="2" stroke-miterlimit="10" stroke-linecap="round" stroke-linejoin="round"/>
<path fill-rule="evenodd" clip-rule="evenodd" d="M0.199951 757.2V718.9C21.4 718.9 38.4999 736.1 38.4999 757.2H0.199951Z" stroke="white" stroke-width="2" stroke-miterlimit="10" stroke-linecap="round" stroke-linejoin="round"/>
<path fill-rule="evenodd" clip-rule="evenodd" d="M115.1 680.6V642.3C136.3 642.3 153.4 659.5 153.4 680.6H115.1V680.6Z" stroke="white" stroke-width="2" stroke-miterlimit="10" stroke-linecap="round" stroke-linejoin="round"/>
<path fill-rule="evenodd" clip-rule="evenodd" d="M153.4 680.6V642.3C174.6 642.3 191.7 659.5 191.7 680.6H153.4V680.6Z" stroke="white" stroke-width="2" stroke-miterlimit="10" stroke-linecap="round" stroke-linejoin="round"/>
<path fill-rule="evenodd" clip-rule="evenodd" d="M115.1 718.9V680.6C136.3 680.6 153.4 697.8 153.4 718.9H115.1V718.9Z" stroke="white" stroke-width="2" stroke-miterlimit="10" stroke-linecap="round" stroke-linejoin="round"/>
<path fill-rule="evenodd" clip-rule="evenodd" d="M153.4 718.9V680.6C174.6 680.6 191.7 697.8 191.7 718.9H153.4V718.9Z" stroke="white" stroke-width="2" stroke-miterlimit="10" stroke-linecap="round" stroke-linejoin="round"/>
<path fill-rule="evenodd" clip-rule="evenodd" d="M-38.0999 565.6V527.3C-16.8999 527.3 0.200165 544.5 0.200165 565.6H-38.0999Z" stroke="white" stroke-width="2" stroke-miterlimit="10" stroke-linecap="round" stroke-linejoin="round"/>
<path fill-rule="evenodd" clip-rule="evenodd" d="M-38.0999 603.9V565.6C-16.8999 565.6 0.200165 582.8 0.200165 603.9H-38.0999V603.9Z" stroke="white" stroke-width="2" stroke-miterlimit="10" stroke-linecap="round" stroke-linejoin="round"/>
<path fill-rule="evenodd" clip-rule="evenodd" d="M0.199921 680.6C-21.0001 680.6 -38.1001 663.4 -38.1001 642.3H0.199921V680.6Z" stroke="white" stroke-width="2" stroke-miterlimit="10" stroke-linecap="round" stroke-linejoin="round"/>
<path fill-rule="evenodd" clip-rule="evenodd" d="M0.199921 642.3H-38.1001C-38.1001 621.1 -20.9001 604 0.199921 604V642.3Z" stroke="white" stroke-width="2" stroke-miterlimit="10" stroke-linecap="round" stroke-linejoin="round"/>
<path fill-rule="evenodd" clip-rule="evenodd" d="M0.199951 680.6V642.3H38.4999C38.4999 663.4 21.4 680.6 0.199951 680.6Z" stroke="white" stroke-width="2" stroke-miterlimit="10" stroke-linecap="round" stroke-linejoin="round"/>
<path fill-rule="evenodd" clip-rule="evenodd" d="M76.8 757.2H38.5C38.5 736 55.7 718.9 76.8 718.9V757.2Z" stroke="white" stroke-width="2" stroke-miterlimit="10" stroke-linecap="round" stroke-linejoin="round"/>
</g>
<g opacity="0.1" clip-path="url(#clip2)">
<path d="M1010.6 38.5H972.3V76.8H1010.6V38.5Z" stroke="white" stroke-width="2" stroke-miterlimit="10" stroke-linecap="round" stroke-linejoin="round"/>
<path fill-rule="evenodd" clip-rule="evenodd" d="M991.4 38.5C980.8 38.5 972.2 29.9 972.2 19.3C972.2 8.69999 980.8 0.100006 991.4 0.100006C1002 0.100006 1010.6 8.69999 1010.6 19.3C1010.6 29.9 1002 38.5 991.4 38.5Z" stroke="white" stroke-width="2" stroke-miterlimit="10" stroke-linecap="round" stroke-linejoin="round"/>
<path fill-rule="evenodd" clip-rule="evenodd" d="M1029.7 76.8C1019.1 76.8 1010.5 68.2 1010.5 57.6C1010.5 47 1019.1 38.4 1029.7 38.4C1040.3 38.4 1048.9 47 1048.9 57.6C1048.9 68.2 1040.3 76.8 1029.7 76.8Z" stroke="white" stroke-width="2" stroke-miterlimit="10" stroke-linecap="round" stroke-linejoin="round"/>
<path d="M1048.9 0.200012H1010.6V38.5H1048.9V0.200012Z" stroke="white" stroke-width="2" stroke-miterlimit="10" stroke-linecap="round" stroke-linejoin="round"/>
<path d="M1240.4 76.8H1202.1V115.1H1240.4V76.8Z" stroke="white" stroke-width="2" stroke-miterlimit="10" stroke-linecap="round" stroke-linejoin="round"/>
<path fill-rule="evenodd" clip-rule="evenodd" d="M1221.3 76.8C1210.7 76.8 1202.1 68.2 1202.1 57.6C1202.1 47 1210.7 38.4 1221.3 38.4C1231.9 38.4 1240.5 47 1240.5 57.6C1240.4 68.2 1231.9 76.8 1221.3 76.8Z" stroke="white" stroke-width="2" stroke-miterlimit="10" stroke-linecap="round" stroke-linejoin="round"/>
<path fill-rule="evenodd" clip-rule="evenodd" d="M1259.6 115.1C1249 115.1 1240.4 106.5 1240.4 95.9C1240.4 85.3 1249 76.7 1259.6 76.7C1270.2 76.7 1278.8 85.3 1278.8 95.9C1278.8 106.6 1270.2 115.1 1259.6 115.1Z" stroke="white" stroke-width="2" stroke-miterlimit="10" stroke-linecap="round" stroke-linejoin="round"/>
<path d="M1278.7 38.5H1240.4V76.8H1278.7V38.5Z" stroke="white" stroke-width="2" stroke-miterlimit="10" stroke-linecap="round" stroke-linejoin="round"/>
<path d="M1087.2 38.5H1048.9V76.8H1087.2V38.5Z" stroke="white" stroke-width="2" stroke-miterlimit="10" stroke-linecap="round" stroke-linejoin="round"/>
<path fill-rule="evenodd" clip-rule="evenodd" d="M1087.2 0.200012V38.5H1048.9L1087.2 0.200012Z" stroke="white" stroke-width="2" stroke-miterlimit="10" stroke-linecap="round" stroke-linejoin="round"/>
<path d="M1125.5 38.5H1087.2V76.8H1125.5V38.5Z" stroke="white" stroke-width="2" stroke-miterlimit="10" stroke-linecap="round" stroke-linejoin="round"/>
<path fill-rule="evenodd" clip-rule="evenodd" d="M1125.5 38.5H1087.2V0.200012L1125.5 38.5Z" stroke="white" stroke-width="2" stroke-miterlimit="10" stroke-linecap="round" stroke-linejoin="round"/>
<path d="M1010.6 -38.1H972.3V0.200012H1010.6V-38.1Z" stroke="white" stroke-width="2" stroke-miterlimit="10" stroke-linecap="round" stroke-linejoin="round"/>
<path d="M1048.9 -38.1H1010.6V0.200012H1048.9V-38.1Z" stroke="white" stroke-width="2" stroke-miterlimit="10" stroke-linecap="round" stroke-linejoin="round"/>
<path d="M1240.4 0.200012H1202.1V38.5H1240.4V0.200012Z" stroke="white" stroke-width="2" stroke-miterlimit="10" stroke-linecap="round" stroke-linejoin="round"/>
<path fill-rule="evenodd" clip-rule="evenodd" d="M1240.4 -38.1V0.200012H1202.1L1240.4 -38.1Z" stroke="white" stroke-width="2" stroke-miterlimit="10" stroke-linecap="round" stroke-linejoin="round"/>
<path d="M1278.7 0.200012H1240.4V38.5H1278.7V0.200012Z" stroke="white" stroke-width="2" stroke-miterlimit="10" stroke-linecap="round" stroke-linejoin="round"/>
<path fill-rule="evenodd" clip-rule="evenodd" d="M1278.8 0.200012H1240.4V-38.1L1278.8 0.200012Z" stroke="white" stroke-width="2" stroke-miterlimit="10" stroke-linecap="round" stroke-linejoin="round"/>
<path fill-rule="evenodd" clip-rule="evenodd" d="M1048.9 0.200012V-38.1C1070.1 -38.1 1087.2 -20.9 1087.2 0.200012H1048.9Z" stroke="white" stroke-width="2" stroke-miterlimit="10" stroke-linecap="round" stroke-linejoin="round"/>
<path fill-rule="evenodd" clip-rule="evenodd" d="M1087.2 0.200012V-38.1C1108.4 -38.1 1125.5 -20.9 1125.5 0.200012H1087.2Z" stroke="white" stroke-width="2" stroke-miterlimit="10" stroke-linecap="round" stroke-linejoin="round"/>
<path fill-rule="evenodd" clip-rule="evenodd" d="M1125.5 76.8V38.5C1146.7 38.5 1163.8 55.7 1163.8 76.8H1125.5Z" stroke="white" stroke-width="2" stroke-miterlimit="10" stroke-linecap="round" stroke-linejoin="round"/>
<path fill-rule="evenodd" clip-rule="evenodd" d="M1163.8 76.8V38.5C1185 38.5 1202.1 55.7 1202.1 76.8H1163.8Z" stroke="white" stroke-width="2" stroke-miterlimit="10" stroke-linecap="round" stroke-linejoin="round"/>
<path fill-rule="evenodd" clip-rule="evenodd" d="M1125.5 115.1V76.8C1146.7 76.8 1163.8 94 1163.8 115.1H1125.5Z" stroke="white" stroke-width="2" stroke-miterlimit="10" stroke-linecap="round" stroke-linejoin="round"/>
<path fill-rule="evenodd" clip-rule="evenodd" d="M1163.8 115.1V76.8C1185 76.8 1202.1 94 1202.1 115.1H1163.8Z" stroke="white" stroke-width="2" stroke-miterlimit="10" stroke-linecap="round" stroke-linejoin="round"/>
<path fill-rule="evenodd" clip-rule="evenodd" d="M1163.8 38.5C1142.6 38.5 1125.5 21.3 1125.5 0.200012H1163.8V38.5Z" stroke="white" stroke-width="2" stroke-miterlimit="10" stroke-linecap="round" stroke-linejoin="round"/>
<path fill-rule="evenodd" clip-rule="evenodd" d="M1163.8 0.200012H1125.5C1125.5 -21 1142.7 -38.1 1163.8 -38.1V0.200012Z" stroke="white" stroke-width="2" stroke-miterlimit="10" stroke-linecap="round" stroke-linejoin="round"/>
<path fill-rule="evenodd" clip-rule="evenodd" d="M1163.8 38.5V0.200012H1202.1C1202.1 21.4 1185 38.5 1163.8 38.5Z" stroke="white" stroke-width="2" stroke-miterlimit="10" stroke-linecap="round" stroke-linejoin="round"/>
</g>
<g opacity="0.1" clip-path="url(#clip3)">
<path d="M115.4 76.8H77.1001V115.1H115.4V76.8Z" stroke="white" stroke-width="2" stroke-miterlimit="10" stroke-linecap="round" stroke-linejoin="round"/>
<path fill-rule="evenodd" clip-rule="evenodd" d="M96.3001 76.8C85.7001 76.8 77.1001 68.2 77.1001 57.6C77.1001 47 85.7001 38.4 96.3001 38.4C106.9 38.4 115.5 47 115.5 57.6C115.4 68.2 106.9 76.8 96.3001 76.8Z" stroke="white" stroke-width="2" stroke-miterlimit="10" stroke-linecap="round" stroke-linejoin="round"/>
<path fill-rule="evenodd" clip-rule="evenodd" d="M134.6 115.1C124 115.1 115.4 106.5 115.4 95.9C115.4 85.3 124 76.7 134.6 76.7C145.2 76.7 153.8 85.3 153.8 95.9C153.8 106.6 145.2 115.1 134.6 115.1Z" stroke="white" stroke-width="2" stroke-miterlimit="10" stroke-linecap="round" stroke-linejoin="round"/>
<path d="M153.7 38.5H115.4V76.8H153.7V38.5Z" stroke="white" stroke-width="2" stroke-miterlimit="10" stroke-linecap="round" stroke-linejoin="round"/>
<path d="M0.499939 38.5H-37.8V76.8H0.499939V38.5Z" stroke="white" stroke-width="2" stroke-miterlimit="10" stroke-linecap="round" stroke-linejoin="round"/>
<path fill-rule="evenodd" clip-rule="evenodd" d="M0.499939 38.5H-37.8V0.200012L0.499939 38.5Z" stroke="white" stroke-width="2" stroke-miterlimit="10" stroke-linecap="round" stroke-linejoin="round"/>
<path d="M115.4 0.200012H77.1001V38.5H115.4V0.200012Z" stroke="white" stroke-width="2" stroke-miterlimit="10" stroke-linecap="round" stroke-linejoin="round"/>
<path fill-rule="evenodd" clip-rule="evenodd" d="M115.4 -38.1V0.200012H77.1001L115.4 -38.1Z" stroke="white" stroke-width="2" stroke-miterlimit="10" stroke-linecap="round" stroke-linejoin="round"/>
<path d="M153.7 0.200012H115.4V38.5H153.7V0.200012Z" stroke="white" stroke-width="2" stroke-miterlimit="10" stroke-linecap="round" stroke-linejoin="round"/>
<path fill-rule="evenodd" clip-rule="evenodd" d="M153.8 0.200012H115.4V-38.1L153.8 0.200012Z" stroke="white" stroke-width="2" stroke-miterlimit="10" stroke-linecap="round" stroke-linejoin="round"/>
<path fill-rule="evenodd" clip-rule="evenodd" d="M-37.8 0.200012V-38.1C-16.6 -38.1 0.499939 -20.9 0.499939 0.200012H-37.8Z" stroke="white" stroke-width="2" stroke-miterlimit="10" stroke-linecap="round" stroke-linejoin="round"/>
<path fill-rule="evenodd" clip-rule="evenodd" d="M0.5 76.8V38.5C21.7 38.5 38.8 55.7 38.8 76.8H0.5Z" stroke="white" stroke-width="2" stroke-miterlimit="10" stroke-linecap="round" stroke-linejoin="round"/>
<path fill-rule="evenodd" clip-rule="evenodd" d="M38.8 76.8V38.5C60 38.5 77.1001 55.7 77.1001 76.8H38.8Z" stroke="white" stroke-width="2" stroke-miterlimit="10" stroke-linecap="round" stroke-linejoin="round"/>
<path fill-rule="evenodd" clip-rule="evenodd" d="M0.5 115.1V76.8C21.7 76.8 38.8 94 38.8 115.1H0.5Z" stroke="white" stroke-width="2" stroke-miterlimit="10" stroke-linecap="round" stroke-linejoin="round"/>
<path fill-rule="evenodd" clip-rule="evenodd" d="M38.8 115.1V76.8C60 76.8 77.1001 94 77.1001 115.1H38.8Z" stroke="white" stroke-width="2" stroke-miterlimit="10" stroke-linecap="round" stroke-linejoin="round"/>
<path fill-rule="evenodd" clip-rule="evenodd" d="M38.8 38.5C17.6 38.5 0.5 21.3 0.5 0.200012H38.8V38.5Z" stroke="white" stroke-width="2" stroke-miterlimit="10" stroke-linecap="round" stroke-linejoin="round"/>
<path fill-rule="evenodd" clip-rule="evenodd" d="M38.8 0.200012H0.5C0.5 -21 17.7 -38.1 38.8 -38.1V0.200012Z" stroke="white" stroke-width="2" stroke-miterlimit="10" stroke-linecap="round" stroke-linejoin="round"/>
<path fill-rule="evenodd" clip-rule="evenodd" d="M38.8 38.5V0.200012H77.1001C77.1001 21.4 60 38.5 38.8 38.5Z" stroke="white" stroke-width="2" stroke-miterlimit="10" stroke-linecap="round" stroke-linejoin="round"/>
</g>
<defs>
<clipPath id="clip0">
<rect width="461.8" height="385.1" fill="white" transform="translate(818 527)"/>
</clipPath>
<clipPath id="clip1">
<rect width="461.8" height="385.1" fill="white" transform="translate(-269 488)"/>
</clipPath>
<clipPath id="clip2">
<rect width="461.8" height="385.1" fill="white" transform="translate(818 -269)"/>
</clipPath>
<clipPath id="clip3">
<rect width="461.8" height="385.1" fill="white" transform="translate(-307 -269)"/>
</clipPath>
</defs>
</svg>
