<svg width="103" height="34" viewBox="0 0 103 34" fill="none" xmlns="http://www.w3.org/2000/svg">
<path d="M17.1206 17H0V34H17.1206V17Z" fill="#0980D3"/>
<path d="M17.1206 0H0V17H17.1206V0Z" fill="#00AFF0"/>
<path d="M34.2412 17H17.1206V34H34.2412V17Z" fill="#1351B5"/>
<path d="M34.2412 0H17.1206V17H34.2412V0Z" fill="#0980D3"/>
<path d="M25.6809 8.5H8.5603V25.5H25.6809V8.5Z" fill="#F1F2F2"/>
<path d="M17.1206 8.5H8.5603V17H17.1206V8.5Z" fill="white"/>
<path d="M25.6809 17H17.1206V25.5H25.6809V17Z" fill="#E5E7E8"/>
<path fill-rule="evenodd" clip-rule="evenodd" d="M25.6809 25.5H17.1206V34" fill="#D1D3D4"/>
<path d="M49.0147 19.0564H45.563V2.19354H49.0147V10.8306L52.8807 6.71774H57.1608L52.4665 11.6532L57.2989 18.9193H53.1568L49.9812 14.2581L48.8767 15.3548V19.0564H49.0147Z" fill="black"/>
<path d="M69.7251 12.8871C69.7251 14.6694 69.1729 16.1774 67.9302 17.4113C66.6876 18.6452 65.1688 19.1936 63.2359 19.1936C61.3029 19.1936 59.7841 18.6452 58.5415 17.4113C57.2989 16.1774 56.7466 14.6694 56.7466 12.8871C56.7466 11.1049 57.2989 9.59679 58.5415 8.36292C59.7841 7.12904 61.3029 6.58066 63.2359 6.58066C65.1688 6.58066 66.6876 7.12904 67.9302 8.36292C69.0348 9.59679 69.7251 11.1049 69.7251 12.8871ZM60.0603 12.8871C60.0603 13.8468 60.3364 14.6694 60.8887 15.3549C61.441 16.0403 62.1313 16.3145 63.0978 16.3145C63.9262 16.3145 64.7546 16.0403 65.3069 15.3549C65.8592 14.6694 66.1353 13.8468 66.1353 12.8871C66.1353 11.9274 65.8592 11.1049 65.3069 10.4194C64.7546 9.73388 64.0643 9.45969 63.0978 9.45969C62.2694 9.45969 61.441 9.73388 60.8887 10.4194C60.4745 11.1049 60.0603 11.9274 60.0603 12.8871Z" fill="black"/>
<path d="M82.4277 12.4758V19.0564H78.9759V12.3387C78.9759 11.379 78.8379 10.6935 78.5617 10.1452C78.2856 9.73387 77.7333 9.45967 77.181 9.45967C76.4907 9.45967 75.9384 9.73387 75.3861 10.1452C74.8338 10.6935 74.5577 11.5161 74.5577 12.4758V19.0564H71.106V6.71774H74.5577V8.0887C75.5242 6.99193 76.6287 6.44354 77.8714 6.44354C78.6998 6.44354 79.3901 6.71774 79.9424 7.12903C80.6328 7.54032 81.047 8.0887 81.3231 8.77419C81.7373 8.0887 82.4277 7.40322 83.2561 6.99193C84.0845 6.58064 84.9129 6.44354 85.7413 6.44354C87.2601 6.44354 88.3647 6.85483 89.1931 7.67741C90.0215 8.49999 90.5738 9.73387 90.5738 11.379V18.7823H87.122V12.3387C87.122 10.4193 86.4317 9.45967 85.051 9.45967C84.3606 9.45967 83.8084 9.73387 83.2561 10.1452C82.7038 10.6935 82.4277 11.5161 82.4277 12.4758Z" fill="black"/>
<path d="M103 19.0565H99.8245V17.5484C98.996 18.6452 97.8915 19.1936 96.5108 19.1936C95.2682 19.1936 94.1636 18.7823 93.1971 18.0968C92.2306 17.4113 91.8164 16.3145 91.8164 15.0807C91.8164 13.8468 92.2306 12.8871 93.1971 12.2016C94.1636 11.5161 95.4062 11.2419 96.925 11.2419H99.5483C99.5483 9.87098 98.858 9.32259 97.4773 9.32259C96.925 9.32259 96.2346 9.45969 95.5443 9.73388C94.8539 10.0081 94.3017 10.1452 93.8875 10.5565L92.3687 8.36292C94.0255 7.12904 95.8204 6.58066 97.8915 6.58066C99.4102 6.58066 100.653 6.99195 101.619 7.67743C102.586 8.36292 103 9.59679 103 11.2419V19.0565ZM99.5483 14.3952V13.7097H97.3392C95.9585 13.7097 95.2681 14.121 95.2681 14.9436C95.2681 15.3549 95.4062 15.7661 95.8204 15.9032C96.2346 16.0403 96.6488 16.3145 97.2011 16.3145C97.7534 16.3145 98.3057 16.1774 98.858 15.7661C99.2722 15.4919 99.5483 14.9436 99.5483 14.3952Z" fill="black"/>
<path d="M45.9772 26.7339V29.8871H44.7346V21.7984H45.9772V25.0887C46.1153 24.6774 46.3915 24.4032 46.8057 24.2661C47.2199 24.129 47.496 23.9919 47.9102 23.9919C48.6006 23.9919 49.1529 24.129 49.5671 24.5403C49.9813 24.9516 50.1193 25.5 50.1193 26.3226V29.8871H48.8767V26.7339C48.8767 25.6371 48.4625 25.0887 47.496 25.0887C47.0818 25.0887 46.6676 25.2258 46.3915 25.5C46.1153 25.7742 45.9772 26.1855 45.9772 26.7339Z" fill="#424242"/>
<path d="M57.2989 27.5565H52.7426C52.7426 27.9677 53.0188 28.379 53.2949 28.5161C53.7091 28.7903 54.1233 28.9274 54.5375 28.9274C55.2279 28.9274 55.7802 28.6532 56.1944 28.2419L56.8847 29.0645C56.1944 29.75 55.504 30.0242 54.3995 30.0242C53.571 30.0242 52.8807 29.75 52.3284 29.2016C51.7761 28.6532 51.5 27.9677 51.5 27.0081C51.5 26.0484 51.7761 25.3629 52.3284 24.8145C52.8807 24.2661 53.571 23.9919 54.3995 23.9919C55.2279 23.9919 55.9182 24.2661 56.4705 24.6774C57.0228 25.0887 57.2989 25.7742 57.2989 26.5968V27.5565ZM52.7426 26.5968H56.0563C56.0563 26.0484 55.9182 25.7742 55.6421 25.5C55.366 25.2258 54.9517 25.0887 54.5375 25.0887C54.1233 25.0887 53.7091 25.2258 53.2949 25.5C52.8807 25.7742 52.7426 26.0484 52.7426 26.5968Z" fill="#424242"/>
<path d="M59.9223 29.8871H58.6797V21.7984H59.9223V29.8871Z" fill="#424242"/>
<path d="M64.7548 23.9919C65.5832 23.9919 66.2736 24.2661 66.8259 24.8145C67.3781 25.3629 67.6543 26.0484 67.6543 27.0081C67.6543 27.9678 67.3781 28.6532 66.8259 29.2016C66.2736 29.75 65.5832 30.0242 64.8929 30.0242C64.2025 30.0242 63.5122 29.75 62.9599 29.0645V32.0807H61.7173V24.129H62.9599V25.0887C63.3741 24.4032 63.9264 23.9919 64.7548 23.9919ZM62.8218 27.0081C62.8218 27.5565 62.9599 27.9678 63.3741 28.379C63.6503 28.7903 64.0645 28.9274 64.6167 28.9274C65.169 28.9274 65.5832 28.7903 65.8594 28.379C66.2736 27.9678 66.4116 27.5565 66.4116 27.0081C66.4116 26.4597 66.2736 26.0484 65.8594 25.6371C65.4452 25.2258 65.031 25.0887 64.6167 25.0887C64.0645 25.0887 63.6503 25.2258 63.3741 25.6371C62.9599 25.9113 62.8218 26.4597 62.8218 27.0081Z" fill="#424242"/>
<path d="M69.449 29.0645C68.8967 28.5161 68.6206 27.8306 68.6206 26.871C68.6206 25.9113 68.8967 25.2258 69.449 24.6774C70.0013 24.129 70.6917 23.8548 71.5201 23.8548C72.3485 23.8548 72.9008 24.129 73.4531 24.8145V21.6613H74.5576V29.75H73.315V28.9274C72.9008 29.6129 72.2104 29.8871 71.382 29.8871C70.6917 29.8871 70.0013 29.6129 69.449 29.0645ZM69.8632 27.0081C69.8632 27.5564 70.0013 27.9677 70.4155 28.379C70.8297 28.7903 71.2439 28.9274 71.6581 28.9274C72.0724 28.9274 72.4866 28.7903 72.9008 28.379C73.1769 27.9677 73.4531 27.5564 73.4531 27.0081C73.4531 26.4597 73.315 26.0484 72.9008 25.6371C72.6246 25.2258 72.2104 25.0887 71.6581 25.0887C71.1059 25.0887 70.6917 25.2258 70.4155 25.6371C70.0013 25.9113 69.8632 26.4597 69.8632 27.0081Z" fill="#424242"/>
<path d="M81.8753 27.5565H77.319C77.319 27.9677 77.5952 28.379 77.8713 28.5161C78.2855 28.7903 78.6997 28.9274 79.114 28.9274C79.8043 28.9274 80.3566 28.6532 80.7708 28.2419L81.4611 29.0645C80.7708 29.75 80.0804 30.0242 78.9759 30.0242C78.1475 30.0242 77.4571 29.75 76.9048 29.2016C76.3526 28.6532 76.0764 27.9677 76.0764 27.0081C76.0764 26.0484 76.3526 25.3629 76.9048 24.8145C77.4571 24.2661 78.1475 23.9919 78.9759 23.9919C79.8043 23.9919 80.4946 24.2661 81.0469 24.6774C81.5992 25.0887 81.8753 25.7742 81.8753 26.5968V27.5565ZM77.181 26.5968H80.4946C80.4946 26.0484 80.3566 25.7742 80.0804 25.5C79.8043 25.2258 79.3901 25.0887 78.9759 25.0887C78.5617 25.0887 78.1475 25.2258 77.7333 25.5C77.4571 25.7742 77.181 26.0484 77.181 26.5968Z" fill="#424242"/>
<path d="M87.3982 28.1048C87.3982 28.6532 87.2602 29.0645 86.8459 29.4758C86.4317 29.75 85.8795 30.0242 85.3272 30.0242C84.913 30.0242 84.4988 29.8871 83.9465 29.75C83.3942 29.6129 83.1181 29.3387 82.7039 29.0645L83.2561 28.1048C83.9465 28.6532 84.6368 28.9274 85.1891 28.9274C85.4653 28.9274 85.7414 28.9274 85.8795 28.7903C86.0175 28.6532 86.1556 28.5161 86.1556 28.2419C86.1556 27.9677 85.7414 27.6936 85.051 27.4194H84.913C83.6703 27.1452 83.1181 26.5968 83.1181 25.7742C83.1181 25.2258 83.3942 24.8145 83.8084 24.5403C84.2226 24.2661 84.7749 23.9919 85.4653 23.9919C86.1556 23.9919 86.7079 24.129 87.3982 24.5403L86.984 25.5C86.5698 25.2258 86.0175 25.0887 85.4653 25.0887C85.1891 25.0887 84.913 25.0887 84.7749 25.2258C84.6368 25.3629 84.2226 25.3629 84.2226 25.6371C84.2226 25.7742 84.3607 25.9113 84.4988 26.0484C84.6368 26.0484 84.7749 26.1855 85.051 26.1855C85.3272 26.1855 85.4652 26.3226 85.7414 26.3226C85.8795 26.3226 86.1556 26.4597 86.2937 26.4597C86.4317 26.5968 86.7079 26.5968 86.8459 26.7339C87.1221 27.1452 87.3982 27.5565 87.3982 28.1048Z" fill="#424242"/>
<path d="M89.8835 29.8871H88.6409V21.7984H89.8835V26.5968L92.2307 24.129H93.8875L91.6784 26.4597L94.0256 30.0242H92.5068L90.7119 27.4193L89.8835 28.379V29.8871Z" fill="#424242"/>
</svg>
